<svg width="24" height="18" viewBox="-4 0 24 18" fill="none" xmlns="http://www.w3.org/2000/svg">
<path d="M11.4 11.402C11.9096 11.1282 12.493 10.9724 13.1143 10.9724H13.1164C13.1796 10.9724 13.2091 10.8966 13.1627 10.8545C12.5166 10.2746 11.7786 9.80631 10.9788 9.4687C10.9703 9.46448 10.9619 9.46238 10.9535 9.45817C12.2613 8.50835 13.1122 6.96463 13.1122 5.22295C13.1122 2.33769 10.7787 0 7.89976 0C5.02082 0 2.68945 2.33769 2.68945 5.22295C2.68945 6.96463 3.54028 8.50835 4.85023 9.45817C4.84181 9.46238 4.83338 9.46448 4.82496 9.4687C3.88357 9.86673 3.03905 10.4375 2.31247 11.1662C1.59009 11.8872 1.01498 12.742 0.619224 13.6829C0.229848 14.6042 0.019705 15.5913 5.26633e-05 16.5913C-0.000509446 16.6138 0.00343309 16.6361 0.0116481 16.657C0.0198631 16.678 0.0321842 16.6971 0.0478856 16.7131C0.0635869 16.7292 0.0823508 16.742 0.103071 16.7508C0.123792 16.7595 0.14605 16.764 0.168535 16.764H1.43004C1.5206 16.764 1.59642 16.6903 1.59853 16.5997C1.64065 14.9739 2.29141 13.4512 3.44341 12.2971C4.63331 11.103 6.21704 10.4459 7.90187 10.4459C9.09598 10.4459 10.2417 10.7765 11.2294 11.3957C11.2548 11.4117 11.2839 11.4206 11.3138 11.4217C11.3438 11.4229 11.3735 11.4161 11.4 11.402ZM7.90187 8.84531C6.9373 8.84531 6.02961 8.46833 5.34515 7.78387C5.00838 7.44798 4.74141 7.04878 4.5596 6.60926C4.37779 6.16974 4.28474 5.69859 4.28582 5.22295C4.28582 4.25628 4.6628 3.34648 5.34515 2.66202C6.0275 1.97756 6.9352 1.60058 7.90187 1.60058C8.86853 1.60058 9.77412 1.97756 10.4586 2.66202C10.7953 2.99791 11.0623 3.39711 11.2441 3.83664C11.4259 4.27616 11.519 4.74731 11.5179 5.22295C11.5179 6.18961 11.1409 7.09942 10.4586 7.78387C9.77412 8.46833 8.86643 8.84531 7.90187 8.84531ZM15.6478 13.8577H13.8788V12.0886C13.8788 11.9959 13.803 11.9201 13.7103 11.9201H12.5309C12.4382 11.9201 12.3624 11.9959 12.3624 12.0886V13.8577H10.5934C10.5007 13.8577 10.4249 13.9335 10.4249 14.0261V15.2055C10.4249 15.2982 10.5007 15.374 10.5934 15.374H12.3624V17.1431C12.3624 17.2357 12.4382 17.3115 12.5309 17.3115H13.7103C13.803 17.3115 13.8788 17.2357 13.8788 17.1431V15.374H15.6478C15.7405 15.374 15.8163 15.2982 15.8163 15.2055V14.0261C15.8163 13.9335 15.7405 13.8577 15.6478 13.8577Z" fill="#125FA9"/>
</svg>
