<svg width="24" height="24" viewBox="-4 -4 24 24" fill="none" xmlns="http://www.w3.org/2000/svg">
<path d="M6.94973 0H8.21335C8.32567 0 8.38183 0.0561607 8.38183 0.168482V14.9949C8.38183 15.1072 8.32567 15.1634 8.21335 15.1634H6.94973C6.83741 15.1634 6.78125 15.1072 6.78125 14.9949V0.168482C6.78125 0.0561607 6.83741 0 6.94973 0Z" fill="#125FA9"/>
<path d="M0.842411 6.78137H14.9949C15.1072 6.78137 15.1634 6.83753 15.1634 6.94985V8.21347C15.1634 8.32579 15.1072 8.38195 14.9949 8.38195H0.168482C0.0561607 8.38195 0 8.32579 0 8.21347V6.94985C0 6.83753 0.0561607 6.78137 0.168482 6.78137H0.842411Z" fill="#125FA9"/>
</svg>
