<svg width="24" height="10" viewBox="-9.5 0 24 10" fill="none" xmlns="http://www.w3.org/2000/svg">
<path d="M4.75789 4.6675L0.132364 0.0225297C0.120277 0.0102955 0.105752 0.00269247 0.0904557 0.000593723C0.0751597 -0.00150503 0.0597134 0.0019856 0.0458908 0.0106648C0.0320682 0.019344 0.02043 0.0328598 0.0123127 0.0496598C0.00419528 0.0664599 -7.20428e-05 0.0858629 9.20208e-07 0.105641V1.1254C9.20208e-07 1.19004 0.0236006 1.25204 0.0625913 1.29162L3.75645 4.99994L0.0625913 8.70827C0.0225746 8.74785 9.20208e-07 8.80985 9.20208e-07 8.87449V9.89425C9.20208e-07 9.98264 0.0790084 10.0314 0.132364 9.97736L4.75789 5.33239C4.79721 5.29296 4.82901 5.24252 4.85089 5.18492C4.87276 5.12731 4.88413 5.06405 4.88413 4.99994C4.88413 4.93584 4.87276 4.87258 4.85089 4.81497C4.82901 4.75736 4.79721 4.70693 4.75789 4.6675Z" fill="#125FA9"/>
</svg>
