<svg width="24" height="25" viewBox="0 0 24 25" fill="none" xmlns="http://www.w3.org/2000/svg">
<path fill-rule="evenodd" clip-rule="evenodd" d="M13.3429 6.58866L14.7679 8.00167L8.44974 14.4616C8.1327 14.7874 8.1327 15.3118 8.44974 15.6376C8.75058 15.9468 9.25315 15.9454 9.55079 15.6359L16.5022 8.52565C17.517 7.48288 17.517 5.80821 16.5022 4.76544C15.5339 3.77054 13.8208 3.79267 12.8718 4.76734L5.28454 12.5226C3.57154 14.282 3.57154 17.1073 5.28454 18.8668C6.94795 20.5753 9.80544 20.5475 11.4429 18.8652L20.2919 9.81605L21.717 11.2289L12.8696 20.2764C10.4557 22.7564 6.31008 22.7968 3.85633 20.2765C1.38094 17.734 1.38094 13.6554 3.85804 11.1111L11.4453 3.35587C13.1687 1.58569 16.1701 1.54691 17.9307 3.35601C19.7075 5.18177 19.7075 8.10932 17.9291 9.93672L10.9819 17.0427C9.90719 18.1602 8.10934 18.1653 7.02113 17.0469C5.94224 15.9381 5.94224 14.1611 7.02293 13.0504L13.3429 6.58866Z" fill="#125FA9"/>
</svg>
