<svg width="42" height="42" viewBox="0 0 42 42" fill="none" xmlns="http://www.w3.org/2000/svg">
<g clip-path="url(#clip0_177_6292)">
<rect width="42" height="42" rx="21" fill="#F5F5F5"/>
<path d="M25.8815 25.1993V28.6318C25.8815 29.2928 16.1181 29.0705 16.1181 28.1174C16.1181 27.2204 16.1364 23.1554 16.1181 18.9733C13.9316 16.1393 13.9316 14.368 15.6604 12.5374C17.3891 10.7067 29.6954 9.79138 29.6954 9.79138C29.6954 9.79138 30.6186 18.6715 30.7632 21.0804C30.8214 22.0491 31.4497 25.1993 29.0089 25.1993H25.8815Z" fill="url(#paint0_linear_177_6292)"/>
<g style="mix-blend-mode:multiply">
<path d="M25.8777 24.9061C23.8901 24.6893 21.9692 24.0618 20.2368 23.0636C20.2368 23.0636 21.4572 25.9621 25.8777 26.7487V24.9061Z" fill="#FFD7B8"/>
</g>
<path d="M37.018 35.4673C37.9862 37.4359 38.749 40.6904 39.3063 45.2307H2.69336C3.25089 40.6899 4.01366 37.4354 4.98167 35.4673C5.94642 33.5054 14.8977 29.7299 14.8977 29.7299C14.8977 29.7299 15.0759 28.004 15.5079 27.7566C15.9399 27.5091 25.9772 27.5093 26.4918 27.7566C27.0063 28.0039 27.102 29.7289 27.102 29.7289C27.102 29.7289 36.0551 33.5095 37.018 35.4673Z" fill="url(#paint1_linear_177_6292)"/>
<path d="M18.1041 14.3994C17.619 13.9828 17.0296 13.7022 16.1963 14.1352C14.2209 15.1608 15.5319 19.1178 17.7426 19.0406C18.5054 19.014 18.1557 20.5341 16.1179 21.538C16.1179 19.9362 13.677 15.9698 13.4635 12.3586C11.0073 11.444 11.6176 7.78468 13.3037 7.78468C13.0346 4.42987 18.4062 2.69716 20.4861 4.62224C22.6014 2.08695 27.9408 3.38365 28.2632 5.58318C31.9347 3.62332 34.3481 9.25698 30.9103 11.444C29.4957 12.3441 26.1865 12.6865 21.4095 12.6865C19.1173 12.6865 20.4355 18.0519 21.1522 19.7837C22.0675 21.9957 27.1781 22.3008 28.7799 22.072C30.0308 21.8933 30.6868 21.3855 30.7631 21.0804C31.9072 24.1314 30.458 25.9621 28.1697 25.9621C24.2795 25.9621 20.3894 24.8179 19.7792 21.9957C19.2935 19.7496 19.3202 16.1248 18.1041 14.3994Z" fill="#125FA9"/>
</g>
<defs>
<linearGradient id="paint0_linear_177_6292" x1="22.647" y1="9.79138" x2="22.647" y2="29.0112" gradientUnits="userSpaceOnUse">
<stop stop-color="#FFD4B3"/>
<stop offset="1" stop-color="#FFDCC2"/>
</linearGradient>
<linearGradient id="paint1_linear_177_6292" x1="20.9998" y1="27.571" x2="20.9998" y2="45.2307" gradientUnits="userSpaceOnUse">
<stop stop-color="#806A6A"/>
<stop offset="1" stop-color="#665654"/>
</linearGradient>
<clipPath id="clip0_177_6292">
<rect width="42" height="42" rx="21" fill="white"/>
</clipPath>
</defs>
</svg>
