<svg width="120" height="120" viewBox="0 0 120 120" fill="none" xmlns="http://www.w3.org/2000/svg">
<g clip-path="url(#clip0_474_15437)">
<rect width="120" height="120" fill="#F5F5F5"/>
<path d="M73.948 72.7676V82.5746C73.948 84.4632 46.0524 83.8282 46.0524 81.1049C46.0524 78.5419 46.1047 66.9278 46.0524 54.9789C39.8055 46.8818 39.8055 41.8209 44.7448 36.5905C49.6841 31.3601 84.8447 28.7449 84.8447 28.7449C84.8447 28.7449 87.4826 54.1168 87.8958 60.9991C88.0619 63.7669 89.8572 72.7676 82.8833 72.7676H73.948Z" fill="url(#paint0_linear_474_15437)"/>
<g style="mix-blend-mode:multiply">
<path d="M73.937 71.9297C68.2581 71.3101 62.7699 69.5174 57.8203 66.6653C57.8203 66.6653 61.3073 74.9468 73.937 77.1941V71.9297Z" fill="#FFD7B8"/>
</g>
<path d="M105.766 102.105C108.532 107.729 110.712 117.028 112.304 130H7.6958C9.28875 117.026 11.4681 107.728 14.2338 102.105C16.9903 96.4993 42.5653 85.712 42.5653 85.712C42.5653 85.712 43.0744 80.781 44.3087 80.074C45.5431 79.367 74.2211 79.3675 75.6913 80.074C77.1614 80.7806 77.4347 85.7094 77.4347 85.7094C77.4347 85.7094 103.015 96.511 105.766 102.105Z" fill="url(#paint1_linear_474_15437)"/>
<path d="M51.7275 41.9106C50.3415 40.7202 48.6573 39.9187 46.2766 41.1557C40.6325 44.086 44.3784 55.3916 50.6945 55.171C52.8739 55.0952 51.8749 59.4382 46.0525 62.3066C46.0525 57.73 39.0786 46.3974 38.4684 36.0795C31.4509 33.4665 33.1944 23.0113 38.0121 23.0113C37.2432 13.4262 52.5906 8.47557 58.5332 13.9758C64.5769 6.73209 79.8323 10.437 80.7533 16.7213C91.2434 11.1217 98.1388 27.2179 88.3165 33.4665C84.2747 36.0381 74.8198 37.0167 61.1715 37.0167C54.6221 37.0167 58.3885 52.3461 60.4362 57.2941C63.0514 63.6142 77.653 64.486 82.2296 63.8322C85.8037 63.3218 87.6779 61.8707 87.8959 60.999C91.1649 69.7164 87.0241 74.9468 80.4861 74.9468C69.3715 74.9468 58.2568 71.6778 56.5134 63.6142C55.1256 57.1969 55.2018 46.8403 51.7275 41.9106Z" fill="url(#paint2_linear_474_15437)"/>
</g>
<rect x="0.5" y="0.5" width="119" height="119" stroke="#F5F5F5"/>
<defs>
<linearGradient id="paint0_linear_474_15437" x1="64.7065" y1="28.7449" x2="64.7065" y2="83.6586" gradientUnits="userSpaceOnUse">
<stop stop-color="#FFD4B3"/>
<stop offset="1" stop-color="#FFDCC2"/>
</linearGradient>
<linearGradient id="paint1_linear_474_15437" x1="60" y1="79.5439" x2="60" y2="130" gradientUnits="userSpaceOnUse">
<stop stop-color="#806A6A"/>
<stop offset="1" stop-color="#665654"/>
</linearGradient>
<linearGradient id="paint2_linear_474_15437" x1="63.4212" y1="74.9468" x2="63.4212" y2="10" gradientUnits="userSpaceOnUse">
<stop stop-color="#E6864E"/>
<stop offset="1" stop-color="#E67240"/>
</linearGradient>
<clipPath id="clip0_474_15437">
<rect width="120" height="120" fill="white"/>
</clipPath>
</defs>
</svg>
