<svg width="24" height="24" viewBox="-2.5 0 24 24" fill="none" xmlns="http://www.w3.org/2000/svg">
<path d="M17.1941 2.52862H13.6541V1.18005C13.6541 1.08733 13.5782 1.01147 13.4855 1.01147H12.3055C12.2128 1.01147 12.1369 1.08733 12.1369 1.18005V2.52862H6.74266V1.18005C6.74266 1.08733 6.6668 1.01147 6.57409 1.01147H5.39409C5.30137 1.01147 5.22552 1.08733 5.22552 1.18005V2.52862H1.68552C1.31255 2.52862 1.01123 2.82994 1.01123 3.2029V17.1943C1.01123 17.5673 1.31255 17.8686 1.68552 17.8686H17.1941C17.5671 17.8686 17.8684 17.5673 17.8684 17.1943V3.2029C17.8684 2.82994 17.5671 2.52862 17.1941 2.52862ZM16.3512 16.3515H2.52837V8.34433H16.3512V16.3515ZM2.52837 6.91147V4.04576H5.22552V5.05719C5.22552 5.1499 5.30137 5.22576 5.39409 5.22576H6.57409C6.6668 5.22576 6.74266 5.1499 6.74266 5.05719V4.04576H12.1369V5.05719C12.1369 5.1499 12.2128 5.22576 12.3055 5.22576H13.4855C13.5782 5.22576 13.6541 5.1499 13.6541 5.05719V4.04576H16.3512V6.91147H2.52837Z" fill="#125FA9"/>
</svg>
