<svg width="24" height="24" viewBox="-5.5 -5.5 24 24" fill="none" xmlns="http://www.w3.org/2000/svg">
<path d="M6.3335 12.3333C3.01979 12.3333 0.333496 9.64705 0.333496 6.33334C0.333496 3.01963 3.01979 0.333344 6.3335 0.333344C9.6472 0.333344 12.3335 3.01963 12.3335 6.33334C12.3335 7.28315 12.1128 8.1814 11.7199 8.97963C11.6862 9.04803 11.6752 9.12555 11.6905 9.20023L12.2338 11.8475C12.2814 12.0794 12.0787 12.2857 11.846 12.2421L9.10987 11.7302C9.03867 11.7169 8.96522 11.7274 8.89977 11.7584C8.12172 12.1271 7.25169 12.3333 6.3335 12.3333Z" stroke="#125FA9" stroke-width="0.666667"/>
<circle cx="3.00016" cy="6.33335" r="0.666667" stroke="#125FA9" stroke-width="0.666667" stroke-linejoin="round"/>
<circle cx="6.33366" cy="6.33335" r="0.666667" stroke="#125FA9" stroke-width="0.666667" stroke-linejoin="round"/>
<circle cx="9.66667" cy="6.33335" r="0.666667" stroke="#125FA9" stroke-width="0.666667" stroke-linejoin="round"/>
</svg>
