<svg width="38" height="27" viewBox="0 0 38 27" fill="none" xmlns="http://www.w3.org/2000/svg">
<path d="M15 0C18.4746 0 21.5039 1.88672 23.127 4.69922C24.0176 4.10156 25.0957 3.75 26.25 3.75C29.3555 3.75 31.875 6.26953 31.875 9.375C31.875 10.0898 31.7402 10.7695 31.5 11.4023C34.9219 12.0938 37.5 15.123 37.5 18.75C37.5 22.8926 34.1426 26.25 30 26.25H8.4375C3.7793 26.25 0 22.4707 0 17.8125C0 14.1328 2.35547 11.0039 5.63672 9.84961C5.63086 9.69141 5.625 9.5332 5.625 9.375C5.625 4.19531 9.82031 0 15 0ZM18.749 8.0918C17.9699 8.0918 17.343 8.71898 17.3428 9.49805V17.3555L15.0576 15.0703C14.5069 14.5198 13.6162 14.5199 13.0713 15.0703C12.5264 15.621 12.5207 16.5117 13.0713 17.0566L17.7588 21.7441C18.3096 22.2949 19.2002 22.2949 19.7451 21.7441L24.4326 17.0566H24.4268C24.9772 16.5058 24.9774 15.6151 24.4268 15.0703C23.8761 14.5257 22.9853 14.5199 22.4404 15.0703L20.1553 17.3555V9.49805C20.155 8.71902 19.5281 8.09186 18.749 8.0918Z" fill="#125FA9"/>
</svg>
