<svg width="24" height="24" viewBox="-3.5 -3.5 24 24" fill="none" xmlns="http://www.w3.org/2000/svg">
<path d="M16.3254 1.81396H0.604643C0.2702 1.81396 0 2.08416 0 2.41861V14.5115C0 14.8459 0.2702 15.1161 0.604643 15.1161H16.3254C16.6598 15.1161 16.93 14.8459 16.93 14.5115V2.41861C16.93 2.08416 16.6598 1.81396 16.3254 1.81396ZM15.5696 3.90754V13.7557H1.36045V3.90754L0.838942 3.5013L1.58152 2.54709L2.39023 3.1763H14.5417L15.3504 2.54709L16.0929 3.5013L15.5696 3.90754ZM14.5417 3.17441L8.465 7.89818L2.38834 3.17441L1.57963 2.5452L0.837053 3.49941L1.35856 3.90565L7.81312 8.92419C7.99874 9.0684 8.22711 9.14668 8.46217 9.14668C8.69722 9.14668 8.92559 9.0684 9.11121 8.92419L15.5696 3.90754L16.0911 3.5013L15.3485 2.54709L14.5417 3.17441Z" fill="#125FA9"/>
</svg>
