<svg width="24" height="20" viewBox="-5 0 24 20" fill="none" xmlns="http://www.w3.org/2000/svg">
<path d="M3.91247 12.8249V11.6844C3.91247 11.1362 3.97878 10.641 4.11141 10.1989C4.25287 9.75685 4.50044 9.33687 4.85411 8.93899C5.20778 8.54111 5.6985 8.14324 6.32626 7.74536C6.9275 7.36516 7.36959 7.03802 7.65252 6.76393C7.93546 6.48099 8.12113 6.22458 8.20955 5.9947C8.29797 5.75597 8.34218 5.51724 8.34218 5.27851C8.34218 4.90716 8.17418 4.61538 7.8382 4.40318C7.50221 4.18214 7.06455 4.07162 6.5252 4.07162C5.85323 4.07162 5.12378 4.19098 4.33687 4.42971C3.5588 4.66844 2.72767 5.0221 1.8435 5.49072L0 1.88329C0.999116 1.30858 2.06454 0.853227 3.19629 0.517241C4.32803 0.172414 5.56145 0 6.89655 0C8.90363 0 10.4598 0.446507 11.565 1.33952C12.6702 2.2237 13.2228 3.3908 13.2228 4.84085C13.2228 5.5305 13.1167 6.16269 12.9045 6.7374C12.6923 7.31211 12.3563 7.85146 11.8966 8.35544C11.4368 8.85942 10.8311 9.35455 10.0796 9.84085C9.54907 10.1768 9.12909 10.4642 8.81963 10.7029C8.51901 10.9416 8.30239 11.1715 8.16976 11.3926C8.04598 11.6136 7.98409 11.8656 7.98409 12.1485V12.8249H3.91247ZM3.34218 17.4668C3.34218 16.5296 3.61185 15.8709 4.15119 15.4907C4.69938 15.1105 5.36251 14.9204 6.14058 14.9204C6.88329 14.9204 7.52432 15.1105 8.06366 15.4907C8.61185 15.8709 8.88594 16.5296 8.88594 17.4668C8.88594 18.3599 8.61185 19.0053 8.06366 19.4032C7.52432 19.8011 6.88329 20 6.14058 20C5.36251 20 4.69938 19.8011 4.15119 19.4032C3.61185 19.0053 3.34218 18.3599 3.34218 17.4668Z" fill="#125FA9"/>
</svg>
