<svg width="24" height="25" viewBox="0 0 24 25" fill="none" xmlns="http://www.w3.org/2000/svg">
<path fill-rule="evenodd" clip-rule="evenodd" d="M10 15.1039V17.1177H6C3.23858 17.1177 1 14.8637 1 12.0833C1 9.30283 3.23858 7.04883 6 7.04883H10V9.06261H6C4.34315 9.06261 3 10.415 3 12.0833C3 13.7515 4.34315 15.1039 6 15.1039H10ZM14 9.06261V7.04883H18C20.7614 7.04883 23 9.30283 23 12.0833C23 14.8637 20.7614 17.1177 18 17.1177H14V15.1039H18C19.6569 15.1039 21 13.7515 21 12.0833C21 10.415 19.6569 9.06261 18 9.06261H14ZM17 11.0764H7V13.0902H17V11.0764Z" fill="#125FA9"/>
</svg>
