<svg width="24" height="25" viewBox="0 0 24 25" fill="none" xmlns="http://www.w3.org/2000/svg">
<g id="24 / file / folder-zip">
<path id="icon" fill-rule="evenodd" clip-rule="evenodd" d="M21 5.03526C22.1046 5.03526 23 5.93686 23 7.04905V19.1317C23 20.2439 22.1046 21.1455 21 21.1455H18H16H3C1.89543 21.1455 1 20.2439 1 19.1317V5.03526C1 3.92308 1.89543 3.02148 3 3.02148H9C10.12 3.02148 10.8329 3.50021 11.549 4.40984C11.5688 4.43501 11.6171 4.49767 11.6706 4.56706C11.746 4.66499 11.8318 4.77631 11.8625 4.81457C11.8935 4.85326 11.9196 4.88526 11.9412 4.91171L11.9412 4.91173C12.0292 5.01944 12.0419 5.03505 12.0018 5.03526H21ZM15 19.1317H3V5.03526H9C9.38424 5.03526 9.60702 5.18486 9.9816 5.6607C9.99337 5.67566 10.0271 5.71945 10.0691 5.77402L10.0692 5.77407L10.0693 5.77415C10.1496 5.87847 10.2603 6.02209 10.3058 6.07895C10.8087 6.70661 11.2765 7.04516 11.9946 7.04903L15 7.04904V8.05594H16V9.06283H15V11.0766H16V12.0835H15V14.0973H16V15.1042H15V17.1179H16V18.1248H15V19.1317ZM18 19.1317H21V7.04905L17 7.04904V8.05594H18V10.0697H17V11.0766H18V13.0904H17V14.0973H18V16.1111H17V17.1179H18V19.1317Z" fill="#125FA9"/>
</g>
</svg>
