<svg width="24" height="17" viewBox="-5 0 24 17" fill="none" xmlns="http://www.w3.org/2000/svg">
<g clip-path="url(#clip0_2004_9624)">
<path d="M13.0244 13.9526V3.99501C13.0244 2.59546 12.3279 1.89233 10.9485 1.89233H4.43282C3.05336 1.89233 2.35693 2.59546 2.35693 3.99501V13.9526C2.35693 15.3522 3.05336 16.0486 4.43282 16.0486H10.9485C12.3279 16.0486 13.0244 15.3522 13.0244 13.9526Z" fill="#125FA9"/>
<path d="M0 13.745C0 15.3923 1.11161 16.4571 2.92634 16.3499C5.20313 16.2294 7.28571 16.0151 9.91743 15.2852C11.2768 14.8968 11.8995 14.0262 11.8995 12.466V2.66242C11.8995 0.673577 10.5737 -0.330888 8.77234 0.0976835C6.92411 0.512862 5.00893 0.827594 2.65178 0.961526C1.09152 1.06197 0 2.06643 0 3.77402V13.745Z" fill="white"/>
<path d="M0.910645 13.745C0.910645 14.9102 1.63386 15.5128 2.8727 15.4392C5.1227 15.3187 7.11153 15.1111 9.66959 14.4079C10.6204 14.1401 10.9888 13.6379 10.9888 12.466V2.6624C10.9888 1.32981 10.2723 0.680261 8.98656 0.981598C7.11153 1.40347 5.1227 1.73829 2.71198 1.87892C1.62716 1.94588 0.910645 2.56196 0.910645 3.77401V13.745ZM1.98877 13.5508V3.74723C1.98877 3.18472 2.33698 2.96374 2.83922 2.93696C5.14279 2.81642 7.09147 2.4816 8.92627 2.06642C9.54902 1.9258 9.91067 2.24723 9.91067 2.8499V12.4258C9.91067 13.0419 9.70307 13.3164 9.18742 13.4503C7.09147 14.033 5.14279 14.2472 2.91958 14.3611C2.33698 14.3879 1.98877 14.0932 1.98877 13.5508Z" fill="#125FA9"/>
<path d="M3.46212 5.3075C5.35721 5.18696 6.88401 4.9258 8.44424 4.57759C8.7523 4.51062 8.82595 4.3566 8.82595 4.16911C8.82595 3.96152 8.66527 3.78071 8.37058 3.84098C6.88401 4.16911 5.35721 4.43696 3.46212 4.5575C3.19426 4.57759 3.07373 4.7383 3.07373 4.94589C3.07373 5.16018 3.23444 5.32089 3.46212 5.3075ZM3.46212 7.46376C5.35721 7.34319 6.88401 7.07536 8.44424 6.73382C8.7523 6.66685 8.82595 6.51285 8.82595 6.32536C8.82595 6.11776 8.66527 5.93696 8.37058 5.99725C6.88401 6.32536 5.35721 6.59319 3.46212 6.71376C3.19426 6.73382 3.07373 6.89456 3.07373 7.09542C3.07373 7.30971 3.23444 7.47714 3.46212 7.46376ZM3.46212 9.61999C5.35721 9.49948 6.88401 9.23159 8.44424 8.89011C8.7523 8.82314 8.82595 8.66908 8.82595 8.48159C8.82595 8.27399 8.66527 8.09319 8.37058 8.15348C6.88401 8.48159 5.35721 8.74948 3.46212 8.86999C3.19426 8.89011 3.07373 9.05079 3.07373 9.25171C3.07373 9.46599 3.23444 9.63336 3.46212 9.61999ZM3.46212 11.7695C4.56034 11.7093 5.29024 11.6022 6.01344 11.4883C6.23447 11.4481 6.35498 11.274 6.35498 11.0999C6.35498 10.899 6.19424 10.7048 5.89292 10.7584C5.25007 10.8588 4.54024 10.9593 3.46212 11.0195C3.19426 11.0396 3.07373 11.2003 3.07373 11.4012C3.07373 11.6155 3.23444 11.783 3.46212 11.7695Z" fill="#125FA9"/>
</g>
<defs>
<clipPath id="clip0_2004_9624">
<rect width="13.0246" height="16.7557" fill="white"/>
</clipPath>
</defs>
</svg>
