<svg width="24" height="14" viewBox="-2 0 24 14" fill="none" xmlns="http://www.w3.org/2000/svg">
<path d="M10.0005 0C9.74736 0 9.49736 0.04375 9.25986 0.128125L0.494231 3.29375C0.197356 3.40312 0.000481008 3.68438 0.000481008 4C0.000481008 4.31563 0.197356 4.59688 0.494231 4.70625L2.30361 5.35938C1.79111 6.16563 1.50048 7.11875 1.50048 8.12187V9C1.50048 9.8875 1.16298 10.8031 0.803606 11.525C0.600481 11.9312 0.369231 12.3313 0.100481 12.7C0.000481009 12.8344 -0.027644 13.0094 0.028606 13.1687C0.084856 13.3281 0.216106 13.4469 0.378606 13.4875L2.37861 13.9875C2.50986 14.0219 2.65048 13.9969 2.76611 13.925C2.88173 13.8531 2.96298 13.7344 2.98798 13.6C3.25673 12.2625 3.12236 11.0625 2.92236 10.2031C2.82236 9.75937 2.68798 9.30625 2.50048 8.89062V8.12187C2.50048 7.17812 2.81923 6.2875 3.37236 5.575C3.77548 5.09062 4.29736 4.7 4.90986 4.45937L9.81611 2.53125C10.0724 2.43125 10.363 2.55625 10.463 2.8125C10.563 3.06875 10.438 3.35938 10.1817 3.45937L5.27548 5.3875C4.88798 5.54062 4.54736 5.775 4.26923 6.0625L9.25673 7.8625C9.49423 7.94688 9.74423 7.99063 9.99736 7.99063C10.2505 7.99063 10.5005 7.94688 10.738 7.8625L19.5067 4.70625C19.8036 4.6 20.0005 4.31563 20.0005 4C20.0005 3.68438 19.8036 3.40312 19.5067 3.29375L10.7411 0.128125C10.5036 0.04375 10.2536 0 10.0005 0ZM4.00048 11.75C4.00048 12.8531 6.68798 14 10.0005 14C13.313 14 16.0005 12.8531 16.0005 11.75L15.5224 7.20625L11.0786 8.8125C10.7317 8.9375 10.3661 9 10.0005 9C9.63486 9 9.26611 8.9375 8.92236 8.8125L4.47861 7.20625L4.00048 11.75Z" fill="#125FA9"/>
</svg>
