<svg width="24" height="18" viewBox="-4 0 24 18" fill="none" xmlns="http://www.w3.org/2000/svg">
<path d="M0.75 2.85223L7.95335 0.75L15.1498 2.85223V7.1634C15.1498 11.6947 12.2499 15.3176 7.95095 16.75C3.6508 15.3176 0.75 11.6939 0.75 7.1614V2.85223Z" stroke="#06467A" stroke-width="1.5" stroke-linejoin="round"/>
<path d="M7.94919 8.35005C9.05375 8.35005 9.94917 7.45463 9.94917 6.35007C9.94917 5.24552 9.05375 4.3501 7.94919 4.3501C6.84464 4.3501 5.94922 5.24552 5.94922 6.35007C5.94922 7.45463 6.84464 8.35005 7.94919 8.35005Z" stroke="#06467A" stroke-width="1.5" stroke-linecap="round" stroke-linejoin="round"/>
<path d="M11.1499 11.5501C11.1499 9.78276 9.71726 8.3501 7.94996 8.3501C6.18266 8.3501 4.75 9.78276 4.75 11.5501" stroke="#06467A" stroke-width="1.5" stroke-linecap="round" stroke-linejoin="round"/>
</svg>
