<svg width="24" height="25" viewBox="0 0 24 25" fill="none" xmlns="http://www.w3.org/2000/svg">
<g id="24 / basic / more-horizontal">
<path id="icon" fill-rule="evenodd" clip-rule="evenodd" d="M5 14.0964C3.89543 14.0964 3 13.1948 3 12.0826C3 10.9704 3.89543 10.0688 5 10.0688C6.10457 10.0688 7 10.9704 7 12.0826C7 13.1948 6.10457 14.0964 5 14.0964ZM12 14.0964C10.8954 14.0964 10 13.1948 10 12.0826C10 10.9704 10.8954 10.0688 12 10.0688C13.1046 10.0688 14 10.9704 14 12.0826C14 13.1948 13.1046 14.0964 12 14.0964ZM17 12.0826C17 13.1948 17.8954 14.0964 19 14.0964C20.1046 14.0964 21 13.1948 21 12.0826C21 10.9704 20.1046 10.0688 19 10.0688C17.8954 10.0688 17 10.9704 17 12.0826Z" fill="#125FA9"/>
</g>
</svg>
