<svg width="24" height="24" viewBox="0 0 24 24" fill="none" xmlns="http://www.w3.org/2000/svg">
<path fill-rule="evenodd" clip-rule="evenodd" d="M21.1173 0.270363C20.9442 0.0972525 20.7094 0 20.4646 0C20.2198 0 19.985 0.0972525 19.8119 0.270363L10.0212 10.0611C9.91987 10.1624 9.84353 10.2859 9.79821 10.4219L8.49278 14.3382C8.38222 14.6699 8.46855 15.0356 8.71578 15.2828C8.96301 15.53 9.3287 15.6163 9.66039 15.5058L13.5767 14.2003C13.7126 14.155 13.8362 14.0787 13.9375 13.9774L23.7282 4.18665C24.0887 3.82616 24.0887 3.2417 23.7282 2.88122L21.1173 0.270363ZM11.4807 11.2124L20.4646 2.2285L21.7701 3.53393L12.7861 12.5178L10.828 13.1706L11.4807 11.2124Z" fill="#125FA9"/>
<path d="M0.923077 1.84615C0.413276 1.84615 0 2.25943 0 2.76923V23.0769C0 23.5867 0.413276 24 0.923077 24H21.2308C21.7406 24 22.1538 23.5867 22.1538 23.0769V10.1538C22.1538 9.64405 21.7406 9.23077 21.2308 9.23077C20.721 9.23077 20.3077 9.64405 20.3077 10.1538V22.1538H1.84615V3.69231H13.8462C14.356 3.69231 14.7692 3.27903 14.7692 2.76923C14.7692 2.25943 14.356 1.84615 13.8462 1.84615H0.923077Z" fill="#125FA9"/>
</svg>
