<svg width="24" height="24" viewBox="0 0 24 24" fill="none" xmlns="http://www.w3.org/2000/svg">
<path d="M12 0C5.37321 0 0 5.37321 0 12C0 18.6268 5.37321 24 12 24C18.6268 24 24 18.6268 24 12C24 5.37321 18.6268 0 12 0ZM12 21.9643C6.49821 21.9643 2.03571 17.5018 2.03571 12C2.03571 6.49821 6.49821 2.03571 12 2.03571C17.5018 2.03571 21.9643 6.49821 21.9643 12C21.9643 17.5018 17.5018 21.9643 12 21.9643Z" fill="#EA580C"/>
<path d="M10.7148 7.28571C10.7148 7.62671 10.8503 7.95373 11.0914 8.19485C11.3325 8.43597 11.6596 8.57143 12.0006 8.57143C12.3416 8.57143 12.6686 8.43597 12.9097 8.19485C13.1508 7.95373 13.2863 7.62671 13.2863 7.28571C13.2863 6.94472 13.1508 6.6177 12.9097 6.37658C12.6686 6.13546 12.3416 6 12.0006 6C11.6596 6 11.3325 6.13546 11.0914 6.37658C10.8503 6.6177 10.7148 6.94472 10.7148 7.28571ZM12.6434 10.2857H11.3577C11.2398 10.2857 11.1434 10.3821 11.1434 10.5V17.7857C11.1434 17.9036 11.2398 18 11.3577 18H12.6434C12.7613 18 12.8577 17.9036 12.8577 17.7857V10.5C12.8577 10.3821 12.7613 10.2857 12.6434 10.2857Z" fill="#EA580C"/>
</svg>
