<svg width="24" height="24" viewBox="0 0 24 24" fill="none" xmlns="http://www.w3.org/2000/svg">
<path d="M22.9392 3.7834C22.9242 3.75636 22.9032 3.72931 22.8791 3.70828C22.7289 3.55802 22.4855 3.55802 22.3352 3.70828L17.1574 8.88608L15.1169 6.84561L20.2977 1.6648C20.3218 1.64076 20.3398 1.61672 20.3578 1.58968C20.466 1.40636 20.4059 1.17197 20.2226 1.06378C17.2716 -0.679179 13.407 -0.2795 10.8677 2.25681C8.85429 4.27023 8.18715 7.12508 8.86931 9.69144L0.0643496 18.4964C-0.0258036 18.5866 -0.0197935 18.7338 0.0733648 18.827L5.17303 23.9266C5.26619 24.0198 5.41644 24.0258 5.50359 23.9356L14.3055 15.1337C16.8749 15.8189 19.7298 15.1547 21.7462 13.1383C24.2825 10.599 24.6822 6.73442 22.9392 3.7834ZM20.2166 11.6057C18.4706 13.3517 15.8502 13.6882 13.7676 12.6154L13.5032 12.8799L13.5002 12.8769L5.26619 21.1139L2.88614 18.7338L9.80089 11.8191C9.80089 11.8191 9.80089 11.8221 9.8039 11.8221L11.3906 10.2354C10.3178 8.15283 10.6543 5.53238 12.4003 3.78641C12.9634 3.22279 13.6416 2.78738 14.3884 2.50991C15.1352 2.23244 15.9332 2.11945 16.7277 2.17868L12.7339 6.16946C12.5535 6.35005 12.4522 6.59486 12.4522 6.85012C12.4522 7.10537 12.5535 7.35018 12.7339 7.53077L16.4752 11.2721C16.6558 11.4525 16.9006 11.5538 17.1559 11.5538C17.4111 11.5538 17.656 11.4525 17.8365 11.2721L21.8273 7.28135C21.9385 8.83799 21.3946 10.4307 20.2166 11.6057Z" fill="#125FA9"/>
</svg>
