<svg width="28" height="24" viewBox="0 0 28 24" fill="none" xmlns="http://www.w3.org/2000/svg">
<path d="M12.2457 18.3673C12.2457 18.7571 12.4005 19.1308 12.676 19.4064C12.9516 19.6819 13.3254 19.8367 13.7151 19.8367C14.1048 19.8367 14.4785 19.6819 14.7541 19.4064C15.0296 19.1308 15.1844 18.7571 15.1844 18.3673C15.1844 17.9776 15.0296 17.6039 14.7541 17.3283C14.4785 17.0528 14.1048 16.898 13.7151 16.898C13.3254 16.898 12.9516 17.0528 12.676 17.3283C12.4005 17.6039 12.2457 17.9776 12.2457 18.3673ZM12.7355 9.06122V14.6939C12.7355 14.8286 12.8457 14.9388 12.9804 14.9388H14.4498C14.5844 14.9388 14.6947 14.8286 14.6947 14.6939V9.06122C14.6947 8.92653 14.5844 8.81633 14.4498 8.81633H12.9804C12.8457 8.81633 12.7355 8.92653 12.7355 9.06122ZM27.2977 22.5306L14.563 0.489796C14.3732 0.162245 14.0457 0 13.7151 0C13.3844 0 13.0538 0.162245 12.8671 0.489796L0.132408 22.5306C-0.244122 23.1857 0.227306 24 0.980367 24H26.4498C27.2028 24 27.6742 23.1857 27.2977 22.5306ZM3.31302 21.6765L13.7151 3.67041L24.1171 21.6765H3.31302Z" fill="#CD0606"/>
</svg>
