<svg width="24" height="24" viewBox="-3.5 -3.5 24 24" fill="none" xmlns="http://www.w3.org/2000/svg">
<path d="M15.3636 3.30099L13.3513 1.29055C13.1056 1.04492 12.7768 0.906982 12.4292 0.906982C12.0815 0.906982 11.7527 1.04303 11.5071 1.29055L9.33983 3.45404C9.09419 3.69968 8.95626 4.03034 8.95626 4.37801C8.95626 4.72757 9.0923 5.05445 9.33983 5.30198L11.0328 6.99687C10.6472 7.89549 10.093 8.71197 9.40029 9.40221C8.70684 10.0994 7.89625 10.6493 6.99684 11.0385L5.30384 9.34364C5.0582 9.098 4.72943 8.96007 4.38176 8.96007C4.21027 8.95944 4.04039 8.99303 3.88205 9.0589C3.72372 9.12476 3.58012 9.22157 3.45968 9.34364L1.29052 11.5071C1.04489 11.7528 0.906952 12.0834 0.906952 12.4311C0.906952 12.7807 1.043 13.1075 1.29052 13.3551L3.30096 15.3655C3.72043 15.785 4.29862 16.0249 4.89193 16.0249C5.01474 16.0249 5.13378 16.0155 5.25471 15.9947C7.75642 15.5828 10.2392 14.2507 12.244 12.2478C14.2469 10.2412 15.5771 7.75834 15.9928 5.25474C16.1118 4.54429 15.8738 3.81305 15.3636 3.30099ZM14.6531 5.02989C14.2847 7.25762 13.0867 9.47968 11.2822 11.2842C9.47776 13.0886 7.25759 14.2866 5.02986 14.655C4.75021 14.7023 4.46301 14.6078 4.25894 14.4056L2.2844 12.4311L4.37798 10.3356L6.64161 12.603L6.65862 12.62L7.06675 12.4689C8.30424 12.0139 9.428 11.2953 10.3601 10.3628C11.2923 9.43033 12.0105 8.30632 12.4651 7.06867L12.6162 6.66054L10.3337 4.3799L12.4273 2.28443L14.4018 4.25897C14.6059 4.46304 14.7004 4.75024 14.6531 5.02989Z" fill="#125FA9"/>
</svg>
