<svg width="60" height="60" viewBox="0 0 60 60" fill="none" xmlns="http://www.w3.org/2000/svg">
<path d="M0 30C0 22.0435 3.16071 14.4129 8.7868 8.7868C14.4129 3.16071 22.0435 0 30 0C37.9565 0 45.5871 3.16071 51.2132 8.7868C56.8393 14.4129 60 22.0435 60 30C60 37.9565 56.8393 45.5871 51.2132 51.2132C45.5871 56.8393 37.9565 60 30 60C22.0435 60 14.4129 56.8393 8.7868 51.2132C3.16071 45.5871 0 37.9565 0 30ZM22.0664 17.2383C21.1758 17.7305 20.625 18.6797 20.625 19.6875V40.3125C20.625 41.332 21.1758 42.2695 22.0664 42.7617C22.957 43.2539 24.0352 43.2422 24.9141 42.7031L41.7891 32.3906C42.6211 31.875 43.1367 30.9727 43.1367 29.9883C43.1367 29.0039 42.6211 28.1016 41.7891 27.5859L24.9141 17.2734C24.0469 16.7461 22.957 16.7227 22.0664 17.2148V17.2383Z" fill="white"/>
</svg>
