<svg width="24" height="22" viewBox="-1.5 0 24 22" fill="none" xmlns="http://www.w3.org/2000/svg">
<path d="M0 2.09524H8.38095C8.38095 1.53955 8.6017 1.00661 8.99463 0.613681C9.38757 0.220748 9.9205 0 10.4762 0C11.0319 0 11.5648 0.220748 11.9577 0.613681C12.3507 1.00661 12.5714 1.53955 12.5714 2.09524H20.9524V4.19048H19.9048V15.7143H13.881L15.7143 22H13.619L11.7857 15.7143H9.16667L7.33333 22H5.23809L7.07143 15.7143H1.04762V4.19048H0V2.09524ZM3.14286 4.19048V13.619H17.8095V4.19048H3.14286ZM10.319 11.3667C10.2248 11.461 10.099 11.5238 9.95238 11.5238C9.81346 11.5238 9.68022 11.4686 9.58199 11.3704C9.48376 11.2722 9.42857 11.1389 9.42857 11V6.80952C9.42857 6.6706 9.48376 6.53737 9.58199 6.43913C9.68022 6.3409 9.81346 6.28571 9.95238 6.28571C10.099 6.28571 10.2248 6.34857 10.319 6.44286L11.7857 7.89905C12.121 8.23429 12.4562 8.56952 12.4562 8.90476C12.4562 9.24 12.121 9.57524 11.7857 9.91048L10.319 11.3667Z" fill="#125FA9"/>
</svg>
