<svg width="20" height="20" viewBox="0 0 20 20" fill="none" xmlns="http://www.w3.org/2000/svg">
<path fill-rule="evenodd" clip-rule="evenodd" d="M10 2C5.58172 2 2 5.58172 2 10C2 11.2682 2.29437 12.4648 2.8176 13.5278C2.96155 13.8203 3.0137 14.162 2.94406 14.5014L2.27872 17.7434L5.65153 17.1123C5.97503 17.0518 6.29889 17.1012 6.57882 17.2339C7.61487 17.7249 8.77391 18 10 18C14.4183 18 18 14.4183 18 10C18 5.58172 14.4183 2 10 2ZM0 10C0 4.47715 4.47715 0 10 0C15.5228 0 20 4.47715 20 10C20 15.5228 15.5228 20 10 20C8.52702 20 7.12598 19.6809 5.86443 19.1072L1.91523 19.8461C0.867804 20.0421 -0.0442353 19.114 0.169984 18.0701L0.951456 14.2622C0.340939 12.9681 0 11.5225 0 10Z" fill="#125FA9"/>
<path fill-rule="evenodd" clip-rule="evenodd" d="M9.5 5.5C8.94772 5.5 8.5 5.94772 8.5 6.5V7.5H6.5V6.5C6.5 4.84315 7.84315 3.5 9.5 3.5H10.5C12.1569 3.5 13.5 4.84315 13.5 6.5V7.67157C13.5 8.46722 13.1839 9.23028 12.6213 9.79289L11.2929 11.1213C11.1054 11.3089 11 11.5632 11 11.8284V13.5H9V11.8284C9 11.0328 9.31607 10.2697 9.87868 9.70711L11.2071 8.37868C11.3946 8.19114 11.5 7.93679 11.5 7.67157V6.5C11.5 5.94772 11.0523 5.5 10.5 5.5H9.5Z" fill="#125FA9"/>
<path fill-rule="evenodd" clip-rule="evenodd" d="M9 16.5V14.5H11V16.5H9Z" fill="#125FA9"/>
</svg>
