<svg width="24" height="24" viewBox="-4.5 -4.5 24 24" fill="none" xmlns="http://www.w3.org/2000/svg">
<path d="M13.6709 4.68169L9.55915 4.08413L7.7211 0.357843C7.6709 0.255819 7.58831 0.173229 7.48629 0.123027C7.23042 -0.00328781 6.91949 0.101974 6.79156 0.357843L4.95352 4.08413L0.841809 4.68169C0.72845 4.69789 0.624807 4.75133 0.545456 4.8323C0.449524 4.9309 0.396661 5.06355 0.398483 5.20111C0.400305 5.33867 0.456663 5.46987 0.555172 5.5659L3.53005 8.46628L2.82722 12.5618C2.81074 12.6571 2.82128 12.755 2.85765 12.8446C2.89402 12.9342 2.95477 13.0118 3.033 13.0686C3.11122 13.1254 3.20381 13.1592 3.30025 13.1661C3.39669 13.173 3.49313 13.1527 3.57863 13.1075L7.25633 11.1739L10.934 13.1075C11.0344 13.161 11.151 13.1788 11.2628 13.1594C11.5446 13.1108 11.734 12.8436 11.6854 12.5618L10.9826 8.46628L13.9575 5.5659C14.0385 5.48655 14.0919 5.3829 14.1081 5.26954C14.1518 4.98614 13.9543 4.7238 13.6709 4.68169ZM9.7308 8.05818L10.3154 11.4638L7.25633 9.85736L4.19725 11.4654L4.78186 8.0598L2.30738 5.64687L5.7276 5.14971L7.25633 2.05176L8.78506 5.14971L12.2053 5.64687L9.7308 8.05818Z" fill="#EA580C"/>
</svg>
