<svg width="24" height="19" viewBox="-4.5 0 24 19" fill="none" xmlns="http://www.w3.org/2000/svg">
<path d="M14.6362 4.73264L10.1016 0.198071C9.97521 0.0716429 9.80454 0 9.62543 0H0.674286C0.301321 0 0 0.301321 0 0.674286V18.2057C0 18.5787 0.301321 18.88 0.674286 18.88H14.16C14.533 18.88 14.8343 18.5787 14.8343 18.2057V5.21096C14.8343 5.03186 14.7626 4.85907 14.6362 4.73264ZM13.2792 5.52071H9.31357V1.55507L13.2792 5.52071ZM13.3171 17.3629H1.51714V1.51714H7.88071V6.06857C7.88071 6.30329 7.97396 6.52839 8.13993 6.69436C8.30589 6.86033 8.531 6.95357 8.76571 6.95357H13.3171V17.3629ZM7.24857 11.6736H3.37143C3.27871 11.6736 3.20286 11.7494 3.20286 11.8421V12.8536C3.20286 12.9463 3.27871 13.0221 3.37143 13.0221H7.24857C7.34129 13.0221 7.41714 12.9463 7.41714 12.8536V11.8421C7.41714 11.7494 7.34129 11.6736 7.24857 11.6736ZM3.20286 8.97643V9.98786C3.20286 10.0806 3.27871 10.1564 3.37143 10.1564H11.4629C11.5556 10.1564 11.6314 10.0806 11.6314 9.98786V8.97643C11.6314 8.88371 11.5556 8.80786 11.4629 8.80786H3.37143C3.27871 8.80786 3.20286 8.88371 3.20286 8.97643Z" fill="#125FA9"/>
</svg>
