<svg width="24" height="25" viewBox="0 0 24 25" fill="none" xmlns="http://www.w3.org/2000/svg">
<path fill-rule="evenodd" clip-rule="evenodd" d="M10 18.124C5.58172 18.124 2 14.5176 2 10.0689C2 5.62019 5.58172 2.01379 10 2.01379C14.4183 2.01379 18 5.62019 18 10.0689C18 11.9304 17.3729 13.6443 16.3199 15.0084L21.7071 20.4327L20.2929 21.8567L14.9056 16.4323C13.551 17.4926 11.8487 18.124 10 18.124ZM16 10.0689C16 13.4055 13.3137 16.1103 10 16.1103C6.68629 16.1103 4 13.4055 4 10.0689C4 6.73238 6.68629 4.02757 10 4.02757C13.3137 4.02757 16 6.73238 16 10.0689Z" fill="#125FA9"/>
</svg>
