<svg width="24" height="24" viewBox="-2 -2 24 24" fill="none" xmlns="http://www.w3.org/2000/svg">
<path d="M18.7226 9.38725L0.666932 0.334572C0.593544 0.297878 0.509363 0.289244 0.429499 0.308671C0.340862 0.330583 0.264519 0.386725 0.217186 0.464804C0.169853 0.542883 0.155388 0.636536 0.176957 0.725258L2.03757 8.32743C2.06563 8.44183 2.14981 8.53465 2.26205 8.57134L5.45013 9.66569L2.26421 10.76C2.15197 10.7989 2.06779 10.8896 2.04189 11.0039L0.176957 18.6169C0.157531 18.6968 0.166165 18.781 0.202859 18.8522C0.28704 19.0227 0.494254 19.0918 0.666932 19.0076L18.7226 10.0067C18.7896 9.97435 18.8435 9.91823 18.878 9.85348C18.9622 9.6808 18.8932 9.47359 18.7226 9.38725ZM2.30522 16.4541L3.39094 12.0163L9.76278 9.82974C9.81242 9.81247 9.85343 9.77362 9.8707 9.72181C9.90092 9.63116 9.85343 9.53402 9.76278 9.50165L3.39094 7.31726L2.30954 2.89669L15.8648 9.69375L2.30522 16.4541Z" fill="#125FA9"/>
</svg>
