<svg width="24" height="24" viewBox="-1 -1 24 24" fill="none" xmlns="http://www.w3.org/2000/svg">
<path d="M10.9997 1.83398C5.94517 1.83398 1.83301 5.94615 1.83301 11.0007C1.83301 16.0552 5.94517 20.1673 10.9997 20.1673C16.0542 20.1673 20.1663 16.0552 20.1663 11.0007C20.1663 5.94615 16.0542 1.83398 10.9997 1.83398ZM10.9997 18.334C6.95626 18.334 3.66634 15.0441 3.66634 11.0007C3.66634 6.95723 6.95626 3.66732 10.9997 3.66732C15.0431 3.66732 18.333 6.95723 18.333 11.0007C18.333 15.0441 15.0431 18.334 10.9997 18.334Z" fill="#125FA9"/>
<path d="M13.5931 13.5915C13.258 13.9255 12.8622 14.1924 12.4271 14.378C11.6436 14.7088 10.7695 14.757 9.95438 14.5146C9.13924 14.2721 8.43366 13.754 7.95831 13.0488L6.43848 14.0746C6.83488 14.6595 7.33919 15.1635 7.92439 15.5596C8.51991 15.9623 9.18901 16.2436 9.89339 16.3873C10.6238 16.5363 11.3767 16.5363 12.1071 16.3873C12.8115 16.2434 13.4805 15.9621 14.0761 15.5596C14.3631 15.3652 14.6371 15.1397 14.8883 14.8895C15.1376 14.6411 15.365 14.3661 15.5611 14.0746L14.0413 13.0488C13.9096 13.2436 13.7595 13.4253 13.5931 13.5915Z" fill="#125FA9"/>
<path d="M7.79199 11C8.55138 11 9.16699 10.3844 9.16699 9.625C9.16699 8.86561 8.55138 8.25 7.79199 8.25C7.0326 8.25 6.41699 8.86561 6.41699 9.625C6.41699 10.3844 7.0326 11 7.79199 11Z" fill="#125FA9"/>
<path d="M14.2016 10.9872C14.9574 10.9872 15.5702 10.3744 15.5702 9.61858C15.5702 8.86274 14.9574 8.25 14.2016 8.25C13.4457 8.25 12.833 8.86274 12.833 9.61858C12.833 10.3744 13.4457 10.9872 14.2016 10.9872Z" fill="#125FA9"/>
</svg>
