<svg width="22" height="20" viewBox="0 0 22 20" fill="none" xmlns="http://www.w3.org/2000/svg">
<path d="M21.5909 17.9545H2.04545V0.227273C2.04545 0.102273 1.94318 0 1.81818 0H0.227273C0.102273 0 0 0.102273 0 0.227273V19.7727C0 19.8977 0.102273 20 0.227273 20H21.5909C21.7159 20 21.8182 19.8977 21.8182 19.7727V18.1818C21.8182 18.0568 21.7159 17.9545 21.5909 17.9545ZM4.54545 15.6818H6.13636C6.26136 15.6818 6.36364 15.5795 6.36364 15.4545V11.3636C6.36364 11.2386 6.26136 11.1364 6.13636 11.1364H4.54545C4.42045 11.1364 4.31818 11.2386 4.31818 11.3636V15.4545C4.31818 15.5795 4.42045 15.6818 4.54545 15.6818ZM8.86364 15.6818H10.4545C10.5795 15.6818 10.6818 15.5795 10.6818 15.4545V6.36364C10.6818 6.23864 10.5795 6.13636 10.4545 6.13636H8.86364C8.73864 6.13636 8.63636 6.23864 8.63636 6.36364V15.4545C8.63636 15.5795 8.73864 15.6818 8.86364 15.6818ZM13.1818 15.6818H14.7727C14.8977 15.6818 15 15.5795 15 15.4545V8.57955C15 8.45455 14.8977 8.35227 14.7727 8.35227H13.1818C13.0568 8.35227 12.9545 8.45455 12.9545 8.57955V15.4545C12.9545 15.5795 13.0568 15.6818 13.1818 15.6818ZM17.5 15.6818H19.0909C19.2159 15.6818 19.3182 15.5795 19.3182 15.4545V4.09091C19.3182 3.96591 19.2159 3.86364 19.0909 3.86364H17.5C17.375 3.86364 17.2727 3.96591 17.2727 4.09091V15.4545C17.2727 15.5795 17.375 15.6818 17.5 15.6818Z" fill="#125FA9"/>
</svg>
