<svg width="24" height="24" viewBox="-2.5 -2.5 24 24" fill="none" xmlns="http://www.w3.org/2000/svg">
<path d="M9.435 0C4.22469 0 0 4.22469 0 9.435C0 14.6453 4.22469 18.87 9.435 18.87C14.6453 18.87 18.87 14.6453 18.87 9.435C18.87 4.22469 14.6453 0 9.435 0ZM9.435 17.2694C5.10922 17.2694 1.60058 13.7608 1.60058 9.435C1.60058 5.10922 5.10922 1.60058 9.435 1.60058C13.7608 1.60058 17.2694 5.10922 17.2694 9.435C17.2694 13.7608 13.7608 17.2694 9.435 17.2694Z" fill="#125FA9"/>
<path d="M13.1144 12.1013L10.1112 9.92997V4.71755C10.1112 4.62489 10.0354 4.54907 9.94271 4.54907H8.92971C8.83705 4.54907 8.76123 4.62489 8.76123 4.71755V10.5176C8.76123 10.5723 8.7865 10.6229 8.83073 10.6544L12.3141 13.1943C12.3899 13.2491 12.4952 13.2322 12.55 13.1585L13.1523 12.3372C13.2071 12.2592 13.1902 12.1539 13.1144 12.1013Z" fill="#125FA9"/>
</svg>
