<svg width="20" height="20" viewBox="0 0 20 20" fill="none" xmlns="http://www.w3.org/2000/svg">
<path d="M4.41003 5.00009C3.19722 6.35463 2.5182 8.1039 2.49949 9.92196C2.45339 14.0763 5.84519 17.4923 9.99949 17.5001C14.1479 17.5079 17.4995 14.1473 17.4995 10.0001C17.4995 5.91649 14.2358 2.59345 10.1753 2.50009C10.1524 2.49935 10.1296 2.50323 10.1083 2.51148C10.087 2.51974 10.0676 2.5322 10.0511 2.54813C10.0347 2.56406 10.0217 2.58313 10.0128 2.60421C10.004 2.62528 9.99942 2.64792 9.99949 2.67079V5.93759" stroke="#125FA9" stroke-width="2" stroke-linecap="round" stroke-linejoin="round"/>
<path d="M9.11674 10.8841L6.0308 6.47006C5.98811 6.4089 5.96831 6.33467 5.97486 6.26038C5.98142 6.18608 6.01391 6.11646 6.06665 6.06372C6.11939 6.01098 6.18901 5.97849 6.2633 5.97193C6.3376 5.96538 6.41183 5.98518 6.47299 6.02788L10.8871 9.11381C11.1578 9.30881 11.3409 9.60255 11.3967 9.9315C11.4526 10.2605 11.3767 10.5982 11.1854 10.8716C10.9942 11.145 10.703 11.3321 10.3749 11.3925C10.0467 11.4529 9.70802 11.3817 9.43198 11.1943C9.30992 11.1097 9.20329 11.0048 9.11674 10.8841Z" fill="#125FA9"/>
</svg>
