<svg width="24" height="23" viewBox="0 0 24 23" fill="none" xmlns="http://www.w3.org/2000/svg">
<path fill-rule="evenodd" clip-rule="evenodd" d="M10.125 1.83724C10.7044 0.0542488 13.2268 0.0542591 13.8061 1.83724L15.4757 6.97574C15.5621 7.24153 15.8098 7.42149 16.0893 7.42149H21.4922C23.3669 7.42149 24.1464 9.82048 22.6297 10.9224L18.2586 14.0982C18.0326 14.2625 17.9379 14.5536 18.0243 14.8194L19.6939 19.9579C20.2732 21.7409 18.2325 23.2236 16.7158 22.1216L12.3448 18.9459C12.1187 18.7816 11.8125 18.7816 11.5864 18.9459L7.21534 22.1216C5.69864 23.2236 3.65795 21.7409 4.23727 19.9579L5.90687 14.8194C5.99323 14.5536 5.89862 14.2625 5.67253 14.0982L1.30146 10.9224C-0.215245 9.82047 0.564245 7.42149 2.43898 7.42149H7.84192C8.12139 7.42149 8.36908 7.24153 8.45544 6.97574L10.125 1.83724ZM12.5791 2.23593C12.386 1.6416 11.5452 1.6416 11.3521 2.23592L9.68247 7.37443C9.42339 8.1718 8.68033 8.71167 7.84192 8.71167H2.43898C1.81406 8.71167 1.55424 9.51133 2.0598 9.87864L6.43088 13.0544C7.10916 13.5472 7.39299 14.4207 7.1339 15.2181L5.4643 20.3566C5.27119 20.9509 5.95143 21.4452 6.45699 21.0778L10.8281 17.9021C11.5064 17.4093 12.4248 17.4093 13.1031 17.9021L17.4742 21.0778C17.9797 21.4452 18.66 20.9509 18.4669 20.3566L16.7973 15.2181C16.5382 14.4207 16.822 13.5472 17.5003 13.0544L21.8714 9.87864C22.3769 9.51133 22.1171 8.71167 21.4922 8.71167H16.0893C15.2508 8.71167 14.5078 8.1718 14.2487 7.37443L12.5791 2.23593Z" fill="#125FA9" stroke="#125FA9" stroke-linejoin="round"/>
</svg>
