<svg width="21" height="24" viewBox="0 0 21 24" fill="none" xmlns="http://www.w3.org/2000/svg">
<path d="M21 22.5C21 21.6703 20.3297 21 19.5 21L3.75 21C3.3375 21 3 20.6625 3 20.25L3 1.5C3 0.670312 2.32969 -8.16105e-07 1.5 -8.52372e-07C0.670314 -8.88639e-07 1.01977e-06 0.670312 9.83506e-07 1.5L1.63918e-07 20.25C7.33532e-08 22.3219 1.67813 24 3.75 24L19.5 24C20.3297 24 21 23.3297 21 22.5ZM16.5 18C17.3297 18 18 17.3297 18 16.5L18 7.5C18 6.67031 17.3297 6 16.5 6C15.6703 6 15 6.67031 15 7.5L15 16.5C15 17.3297 15.6703 18 16.5 18ZM13.5 16.5L13.5 10.5C13.5 9.67031 12.8297 9 12 9C11.1703 9 10.5 9.67031 10.5 10.5L10.5 16.5C10.5 17.3297 11.1703 18 12 18C12.8297 18 13.5 17.3297 13.5 16.5ZM9 16.5L9 4.5C9 3.67031 8.32969 3 7.5 3C6.67031 3 6 3.67031 6 4.5L6 16.5C6 17.3297 6.67031 18 7.5 18C8.32969 18 9 17.3297 9 16.5Z" fill="#125FA9"/>
</svg>
