<svg width="46" height="32" viewBox="0 0 46 32" fill="none" xmlns="http://www.w3.org/2000/svg">
<path d="M22.8538 0C22.2753 0 21.704 0.0999803 21.1612 0.2928L1.12945 7.5271C0.451011 7.77705 0.00109923 8.41978 0.00109923 9.14107C0.00109923 9.86235 0.451011 10.5051 1.12945 10.755L5.26435 12.2476C4.09315 14.0901 3.429 16.2682 3.429 18.5606V20.5674C3.429 22.5956 2.65772 24.688 1.83645 26.3377C1.37226 27.2661 0.843791 28.1802 0.229626 29.0229C0.00109923 29.33 -0.0631739 29.7299 0.0653723 30.0941C0.193919 30.4583 0.49386 30.7297 0.865216 30.8225L5.43575 31.9652C5.73569 32.0437 6.05705 31.9866 6.32129 31.8223C6.58552 31.6581 6.7712 31.3867 6.82833 31.0796C7.4425 28.0231 7.13542 25.2808 6.67836 23.3169C6.44984 22.3028 6.14275 21.2673 5.71426 20.3174V18.5606C5.71426 16.4039 6.44269 14.3686 7.70673 12.7404C8.62798 11.6334 9.8206 10.7408 11.2203 10.1909L22.4324 5.78458C23.018 5.55605 23.6822 5.84171 23.9107 6.42731C24.1392 7.01291 23.8536 7.67707 23.268 7.90559L12.0559 12.3119C11.1703 12.6618 10.3919 13.1974 9.75633 13.8544L21.1541 17.9679C21.6968 18.1607 22.2682 18.2607 22.8466 18.2607C23.4251 18.2607 23.9964 18.1607 24.5391 17.9679L44.5781 10.755C45.2565 10.5122 45.7064 9.86235 45.7064 9.14107C45.7064 8.41978 45.2565 7.77705 44.5781 7.5271L24.5463 0.2928C24.0035 0.0999803 23.4322 0 22.8538 0ZM9.14217 26.8519C9.14217 29.3728 15.2838 31.9937 22.8538 31.9937C30.4237 31.9937 36.5654 29.3728 36.5654 26.8519L35.4727 16.4682L25.3176 20.1389C24.5249 20.4246 23.6893 20.5674 22.8538 20.5674C22.0182 20.5674 21.1755 20.4246 20.39 20.1389L10.2348 16.4682L9.14217 26.8519Z" fill="#65758B"/>
</svg>
