<svg width="24" height="24" viewBox="0 0 24 24" fill="none" xmlns="http://www.w3.org/2000/svg">
<path d="M10 21.0002H14C14 22.1002 13.1 23.0002 12 23.0002C10.9 23.0002 10 22.1002 10 21.0002ZM21 19.0002V20.0002H3V19.0002L5 17.0002V11.0002C5 7.90024 7 5.20024 10 4.30024V4.00024C10 2.90024 10.9 2.00024 12 2.00024C13.1 2.00024 14 2.90024 14 4.00024V4.30024C17 5.20024 19 7.90024 19 11.0002V17.0002L21 19.0002ZM17 11.0002C17 8.20024 14.8 6.00024 12 6.00024C9.2 6.00024 7 8.20024 7 11.0002V18.0002H17V11.0002Z" fill="#125FA9"/>
</svg>
