<svg width="42" height="32" viewBox="0 0 42 32" fill="none" xmlns="http://www.w3.org/2000/svg">
<path d="M0 4.57143H41.1429C41.1429 2.05 39.0929 0 36.5714 0H4.57143C2.05 0 0 2.05 0 4.57143ZM0 6.85714V27.4286C0 29.95 2.05 32 4.57143 32H36.5714C39.0929 32 41.1429 29.95 41.1429 27.4286V6.85714H0ZM4.57143 26.6643C4.57143 24.5571 6.27857 22.8571 8.37857 22.8571H16.7643C18.8714 22.8571 20.5714 24.5643 20.5714 26.6643C20.5714 27.0857 20.2286 27.4286 19.8071 27.4286H5.33571C4.91429 27.4286 4.57143 27.0857 4.57143 26.6643ZM12.5714 11.4286C13.7838 11.4286 14.9466 11.9102 15.8039 12.7675C16.6612 13.6248 17.1429 14.7876 17.1429 16C17.1429 17.2124 16.6612 18.3752 15.8039 19.2325C14.9466 20.0898 13.7838 20.5714 12.5714 20.5714C11.359 20.5714 10.1962 20.0898 9.33894 19.2325C8.48163 18.3752 8 17.2124 8 16C8 14.7876 8.48163 13.6248 9.33894 12.7675C10.1962 11.9102 11.359 11.4286 12.5714 11.4286ZM25.1429 12.5714C25.1429 11.9429 25.6571 11.4286 26.2857 11.4286H35.4286C36.0571 11.4286 36.5714 11.9429 36.5714 12.5714C36.5714 13.2 36.0571 13.7143 35.4286 13.7143H26.2857C25.6571 13.7143 25.1429 13.2 25.1429 12.5714ZM25.1429 17.1429C25.1429 16.5143 25.6571 16 26.2857 16H35.4286C36.0571 16 36.5714 16.5143 36.5714 17.1429C36.5714 17.7714 36.0571 18.2857 35.4286 18.2857H26.2857C25.6571 18.2857 25.1429 17.7714 25.1429 17.1429ZM25.1429 21.7143C25.1429 21.0857 25.6571 20.5714 26.2857 20.5714H35.4286C36.0571 20.5714 36.5714 21.0857 36.5714 21.7143C36.5714 22.3429 36.0571 22.8571 35.4286 22.8571H26.2857C25.6571 22.8571 25.1429 22.3429 25.1429 21.7143Z" fill="#65758B"/>
</svg>
