<svg width="24" height="20" viewBox="-0.5 0 24 20" fill="none" xmlns="http://www.w3.org/2000/svg">
<path d="M2.85714 1.42857C2.85714 0.638393 2.21875 0 1.42857 0C0.638393 0 0 0.638393 0 1.42857V16.4286C0 18.4018 1.59821 20 3.57143 20H21.4286C22.2188 20 22.8571 19.3616 22.8571 18.5714C22.8571 17.7812 22.2188 17.1429 21.4286 17.1429H3.57143C3.17857 17.1429 2.85714 16.8214 2.85714 16.4286V1.42857ZM21.0089 5.29464C21.567 4.73661 21.567 3.83036 21.0089 3.27232C20.4509 2.71429 19.5446 2.71429 18.9866 3.27232L14.2857 7.97768L11.7232 5.41518C11.1652 4.85714 10.2589 4.85714 9.70089 5.41518L4.70089 10.4152C4.14286 10.9732 4.14286 11.8795 4.70089 12.4375C5.25893 12.9955 6.16518 12.9955 6.72321 12.4375L10.7143 8.45089L13.2768 11.0134C13.8348 11.5714 14.7411 11.5714 15.2991 11.0134L21.0134 5.29911L21.0089 5.29464Z" fill="#EA580C"/>
</svg>
