<svg width="52" height="52" viewBox="0 0 52 52" fill="none" xmlns="http://www.w3.org/2000/svg">
<rect width="52" height="52" rx="15" fill="#DCFCE7"/>
<path d="M36.7119 15.4086H33.9436V14.2051C33.9436 14.0727 33.8353 13.9644 33.7029 13.9644H18.2972C18.1648 13.9644 18.0565 14.0727 18.0565 14.2051V15.4086H15.2883C14.9372 15.4086 14.6004 15.5481 14.3521 15.7964C14.1038 16.0447 13.9644 16.3814 13.9644 16.7326V21.1858C13.9644 23.6441 15.7697 25.6871 18.1227 26.0602C18.5891 29.5566 21.3964 32.3098 24.9169 32.6949V35.8603H19.0194C18.4868 35.8603 18.0565 36.2906 18.0565 36.8232V37.7951C18.0565 37.9275 18.1648 38.0358 18.2972 38.0358H33.7029C33.8353 38.0358 33.9436 37.9275 33.9436 37.7951V36.8232C33.9436 36.2906 33.5134 35.8603 32.9808 35.8603H27.0833V32.6949C30.6037 32.3098 33.4111 29.5566 33.8774 26.0602C36.2304 25.6871 38.0358 23.6441 38.0358 21.1858V16.7326C38.0358 16.3814 37.8963 16.0447 37.648 15.7964C37.3997 15.5481 37.063 15.4086 36.7119 15.4086ZM16.1308 21.1858V17.5751H18.0565V23.8216C17.4976 23.6431 17.0099 23.2916 16.6637 22.8178C16.3176 22.344 16.131 21.7725 16.1308 21.1858ZM31.7772 25.0372C31.7772 26.5146 31.2025 27.9077 30.1554 28.9518C29.1083 29.9989 27.7182 30.5736 26.2408 30.5736H25.7594C24.282 30.5736 22.8888 29.9989 21.8447 28.9518C20.7976 27.9047 20.2229 26.5146 20.2229 25.0372V16.1308H31.7772V25.0372ZM35.8694 21.1858C35.8694 22.4194 35.06 23.4666 33.9436 23.8216V17.5751H35.8694V21.1858Z" fill="#16A34A"/>
</svg>
