<svg width="52" height="52" viewBox="0 0 52 52" fill="none" xmlns="http://www.w3.org/2000/svg">
<rect width="52" height="52" rx="15" fill="#DFF7FF"/>
<path d="M26.0004 16C25.6389 16 25.2818 16.0625 24.9426 16.183L12.4227 20.7044C11.9987 20.8607 11.7175 21.2624 11.7175 21.7132C11.7175 22.164 11.9987 22.5657 12.4227 22.7219L15.007 23.6547C14.275 24.8063 13.8599 26.1677 13.8599 27.6004V28.8546C13.8599 30.1222 13.3779 31.43 12.8646 32.4611C12.5745 33.0413 12.2442 33.6126 11.8603 34.1393C11.7175 34.3312 11.6773 34.5812 11.7577 34.8088C11.838 35.0364 12.0255 35.2061 12.2576 35.2641L15.1141 35.9782C15.3016 36.0273 15.5025 35.9916 15.6676 35.889C15.8327 35.7863 15.9488 35.6167 15.9845 35.4248C16.3684 33.5144 16.1764 31.8005 15.8908 30.573C15.7479 29.9392 15.556 29.292 15.2882 28.6984V27.6004C15.2882 26.2525 15.7435 24.9804 16.5335 23.9627C17.1093 23.2709 17.8547 22.713 18.7295 22.3693L25.7371 19.6154C26.1031 19.4725 26.5182 19.6511 26.661 20.0171C26.8038 20.3831 26.6253 20.7982 26.2593 20.941L19.2517 23.6949C18.6983 23.9136 18.2117 24.2484 17.8145 24.659L24.9381 27.2299C25.2773 27.3505 25.6344 27.4129 25.9959 27.4129C26.3575 27.4129 26.7145 27.3505 27.0538 27.2299L39.5781 22.7219C40.0021 22.5701 40.2833 22.164 40.2833 21.7132C40.2833 21.2624 40.0021 20.8607 39.5781 20.7044L27.0582 16.183C26.719 16.0625 26.3619 16 26.0004 16ZM17.4307 32.7824C17.4307 34.358 21.2692 35.9961 26.0004 35.9961C30.7316 35.9961 34.5701 34.358 34.5701 32.7824L33.8872 26.2926L27.5403 28.5868C27.0448 28.7654 26.5226 28.8546 26.0004 28.8546C25.4782 28.8546 24.9515 28.7654 24.4605 28.5868L18.1136 26.2926L17.4307 32.7824Z" fill="#125FA9"/>
</svg>
