<svg width="52" height="52" viewBox="0 0 52 52" fill="none" xmlns="http://www.w3.org/2000/svg">
<rect width="52" height="52" rx="15" fill="#F3E8FF"/>
<path d="M22.25 16C22.9414 16 23.5 16.5586 23.5 17.25V18.5H28.5V17.25C28.5 16.5586 29.0586 16 29.75 16C30.4414 16 31 16.5586 31 17.25V18.5H32.875C33.9102 18.5 34.75 19.3398 34.75 20.375V22.25H17.25V20.375C17.25 19.3398 18.0898 18.5 19.125 18.5H21V17.25C21 16.5586 21.5586 16 22.25 16ZM17.25 23.5H34.75V34.125C34.75 35.1602 33.9102 36 32.875 36H19.125C18.0898 36 17.25 35.1602 17.25 34.125V23.5ZM30.1016 27.9141C30.4688 27.5469 30.4688 26.9531 30.1016 26.5898C29.7344 26.2266 29.1406 26.2227 28.7773 26.5898L25.0664 30.3008L23.2305 28.4648C22.8633 28.0977 22.2695 28.0977 21.9062 28.4648C21.543 28.832 21.5391 29.4258 21.9062 29.7891L24.4062 32.2891C24.7734 32.6562 25.3672 32.6562 25.7305 32.2891L30.1016 27.9141Z" fill="#9333EA"/>
</svg>
