<svg width="52" height="52" viewBox="0 0 52 52" fill="none" xmlns="http://www.w3.org/2000/svg">
<rect width="52" height="52" rx="15" fill="#FFEDD5"/>
<path d="M17.4284 17.4286C17.4284 16.6384 16.79 16 15.9999 16C15.2097 16 14.5713 16.6384 14.5713 17.4286V32.4286C14.5713 34.4018 16.1695 36 18.1427 36H35.9999C36.79 36 37.4284 35.3616 37.4284 34.5714C37.4284 33.7812 36.79 33.1429 35.9999 33.1429H18.1427C17.7499 33.1429 17.4284 32.8214 17.4284 32.4286V17.4286ZM35.5802 21.2946C36.1383 20.7366 36.1383 19.8304 35.5802 19.2723C35.0222 18.7143 34.1159 18.7143 33.5579 19.2723L28.857 23.9777L26.2945 21.4152C25.7365 20.8571 24.8302 20.8571 24.2722 21.4152L19.2722 26.4152C18.7141 26.9732 18.7141 27.8795 19.2722 28.4375C19.8302 28.9955 20.7365 28.9955 21.2945 28.4375L25.2856 24.4509L27.8481 27.0134C28.4061 27.5714 29.3124 27.5714 29.8704 27.0134L35.5847 21.2991L35.5802 21.2946Z" fill="#EA580C"/>
</svg>
