<svg width="40" height="42" viewBox="0 0 40 42" fill="none" xmlns="http://www.w3.org/2000/svg">
<path d="M0 8C0 3.58172 3.58172 0 8 0H32C36.4183 0 40 3.58172 40 8V34C40 38.4183 36.4183 42 32 42H8C3.58172 42 0 38.4183 0 34V8Z" fill="#DFF7FF"/>
<g clip-path="url(#clip0_169_5451)">
<path fill-rule="evenodd" clip-rule="evenodd" d="M18.6211 13.7529C19.0556 12.4157 20.9475 12.4157 21.3819 13.7529L22.6341 17.6068C22.6989 17.8061 22.8847 17.9411 23.0943 17.9411H27.1465C28.5525 17.9411 29.1372 19.7404 27.9996 20.5668L24.7213 22.9486C24.5518 23.0718 24.4808 23.2902 24.5456 23.4896L25.7978 27.3434C26.2323 28.6807 24.7017 29.7927 23.5642 28.9662L20.2859 26.5844C20.1163 26.4612 19.8867 26.4612 19.7172 26.5844L16.4389 28.9662C15.3013 29.7927 13.7708 28.6807 14.2053 27.3434L15.4575 23.4896C15.5223 23.2902 15.4513 23.0718 15.2817 22.9486L12.0034 20.5668C10.8659 19.7404 11.4505 17.9411 12.8566 17.9411H16.9088C17.1184 17.9411 17.3042 17.8061 17.3689 17.6068L18.6211 13.7529ZM20.4617 14.0519C20.3168 13.6062 19.6862 13.6062 19.5414 14.0519L18.2892 17.9058C18.0949 18.5039 17.5376 18.9087 16.9088 18.9087H12.8566C12.3879 18.9087 12.193 19.5085 12.5722 19.784L15.8505 22.1658C16.3592 22.5354 16.5721 23.1905 16.3778 23.7886L15.1256 27.6425C14.9807 28.0882 15.4909 28.4589 15.8701 28.1834L19.1484 25.8016C19.6571 25.432 20.346 25.432 20.8547 25.8016L24.133 28.1834C24.5122 28.4589 25.0223 28.0882 24.8775 27.6425L23.6253 23.7886C23.431 23.1906 23.6439 22.5354 24.1526 22.1658L27.4309 19.784C27.81 19.5085 27.6152 18.9087 27.1465 18.9087H23.0943C22.4655 18.9087 21.9082 18.5039 21.7139 17.9058L20.4617 14.0519Z" fill="#125FA9" stroke="#125FA9" stroke-width="0.75" stroke-linejoin="round"/>
</g>
<defs>
<clipPath id="clip0_169_5451">
<rect width="18" height="18" fill="white" transform="translate(11 12)"/>
</clipPath>
</defs>
</svg>
