<svg width="24" height="20" viewBox="-5 0 24 20" fill="none" xmlns="http://www.w3.org/2000/svg">
<g clip-path="url(#clip0_2004_2749)">
<path d="M7 10C8.06087 10 9.07828 9.57857 9.82843 8.82843C10.5786 8.07828 11 7.06087 11 6C11 4.93913 10.5786 3.92172 9.82843 3.17157C9.07828 2.42143 8.06087 2 7 2C5.93913 2 4.92172 2.42143 4.17157 3.17157C3.42143 3.92172 3 4.93913 3 6C3 7.06087 3.42143 8.07828 4.17157 8.82843C4.92172 9.57857 5.93913 10 7 10ZM5.57188 11.5C2.49375 11.5 0 13.9937 0 17.0719C0 17.5844 0.415625 18 0.928125 18H13.0719C13.5844 18 14 17.5844 14 17.0719C14 13.9937 11.5063 11.5 8.42813 11.5H5.57188Z" fill="#125FA9"/>
</g>
<defs>
<clipPath id="clip0_2004_2749">
<rect width="14" height="16" fill="white" transform="translate(0 2)"/>
</clipPath>
</defs>
</svg>
