<svg width="26" height="32" viewBox="0 0 26 32" fill="none" xmlns="http://www.w3.org/2000/svg">
<path d="M19.701 0.210463C19.6955 0.172869 19.6937 0.100432 19.6983 0.0500012C19.7028 -0.000429572 19.7221 -0.0151003 19.7414 0.016992C19.7606 0.0500012 19.7157 0.317743 19.6414 0.612992C19.5681 0.908241 18.4833 4.61628 17.2317 8.85246C15.3869 15.0967 14.4755 17.9859 12.4161 24.1192C11.0196 28.2793 9.84042 31.6939 9.79733 31.7068C9.75331 31.7196 9.73773 31.771 9.7634 31.8214C9.78816 31.8718 9.75973 31.9443 9.69921 31.9818C9.61761 32.0332 9.6066 31.9791 9.65704 31.7755C9.69463 31.6242 10.0742 30.314 10.5006 28.8643C10.927 27.4147 11.2763 26.1658 11.2763 26.0906C11.2763 25.9714 10.9151 25.9531 5.86648 25.9531L5.44653 24.6006C5.21454 23.857 4.78451 22.4853 4.49018 21.5518C4.19584 20.6184 3.68053 18.968 3.34494 17.8842C3.00934 16.8004 2.51421 15.2113 2.24371 14.354C1.97414 13.4967 1.35888 11.5363 0.876582 9.99862C0.395197 8.46002 3.57227e-06 7.15065 3.57227e-06 7.08739C-0.00183027 6.99753 0.700533 6.97277 6.41663 6.97277L6.50374 7.31662C6.5505 7.5055 6.90627 8.89831 7.29321 10.4112C7.68107 11.9242 8.12669 13.6736 8.2844 14.299C8.44211 14.9252 8.62275 15.4506 8.68601 15.4681C8.75295 15.4873 8.84006 15.3562 8.89507 15.1563C8.94642 14.9674 9.16832 14.111 9.38838 13.2537C9.60752 12.3964 10.0706 10.6111 11.0471 6.87924L17.3739 6.83523L18.4201 3.71769C18.995 2.00305 19.5002 0.590069 19.5433 0.577232C19.5855 0.564395 19.5992 0.491958 19.5745 0.41677C19.5488 0.341583 19.5699 0.279232 19.6203 0.279232C19.6708 0.279232 19.7074 0.248057 19.701 0.210463Z" fill="#125FA9"/>
<path d="M17.1015 10.8009C17.129 10.6991 17.2537 10.6295 17.4426 10.6093C17.6068 10.5919 18.2669 10.5717 18.9097 10.5634C19.6387 10.5543 20.3291 10.6001 20.7436 10.6845C21.1094 10.7587 21.6761 10.9284 22.0043 11.0595C22.3317 11.1915 22.8277 11.4364 23.1046 11.6032C23.3815 11.7692 23.8978 12.2093 24.2508 12.5807C24.6038 12.9511 25.0237 13.5022 25.1842 13.8048C25.3447 14.1064 25.5583 14.6639 25.6583 15.0417C25.7591 15.4204 25.8664 15.9568 25.9553 16.738L24.1398 16.8068C23.1422 16.8444 21.7989 16.8755 21.1562 16.8755C20.3025 16.8755 19.977 16.8444 19.9486 16.7609C19.9275 16.6977 19.8862 16.5326 19.8569 16.3942C19.823 16.2309 19.6992 16.0897 19.5057 15.9935C19.2957 15.888 19.0372 15.8541 18.6273 15.8788C18.178 15.9054 18.0175 15.954 17.9158 16.0962C17.8424 16.197 17.7837 16.3309 17.7846 16.3942C17.7856 16.4574 17.9414 16.6225 18.1303 16.7618C18.3192 16.9012 19.072 17.2368 19.8037 17.5073C20.5354 17.7778 21.5669 18.2197 22.096 18.4893C22.6251 18.7589 23.3064 19.1788 23.6089 19.4228C23.9115 19.6667 24.359 20.1114 24.6029 20.4112C24.8468 20.711 25.1659 21.2034 25.3117 21.506C25.4575 21.8086 25.6463 22.3248 25.7316 22.6522C25.8233 23.0079 25.8866 23.6177 25.8893 24.1651C25.8921 24.6694 25.8398 25.3094 25.7729 25.5863C25.7059 25.8632 25.506 26.4005 25.3282 26.7783C25.087 27.2918 24.8385 27.6292 24.3526 28.1088C23.9161 28.5397 23.4586 28.879 22.9671 29.1357C22.5636 29.3457 21.8622 29.6125 21.4083 29.7271C20.716 29.9023 20.3392 29.9362 19.0702 29.938C17.7764 29.9389 17.438 29.9078 16.732 29.7244C16.2781 29.6061 15.618 29.3769 15.2649 29.2155C14.9119 29.055 14.3755 28.7534 14.0729 28.5471C13.7704 28.3398 13.333 27.9712 13.1001 27.7264C12.8681 27.4825 12.5481 27.0864 12.1016 26.4115L13.1734 23.2482L17.2363 23.2023L17.2822 23.6149C17.3097 23.8607 17.4115 24.122 17.5343 24.2614C17.648 24.3906 17.9057 24.5337 18.1074 24.5804C18.3091 24.6272 18.6722 24.6657 18.9143 24.6676C19.2636 24.6694 19.3993 24.6226 19.5791 24.4402C19.7028 24.3145 19.8037 24.1486 19.8037 24.0734C19.8037 23.9982 19.7624 23.8533 19.712 23.7525C19.6616 23.6516 19.4654 23.4911 19.2765 23.3949C19.0876 23.2995 18.355 22.9951 17.6489 22.72C16.9429 22.444 16.0553 22.0626 15.6776 21.8719C15.2989 21.6811 14.7716 21.3767 14.5048 21.1942C14.238 21.0127 14.0216 20.8229 14.0234 20.7725C14.0253 20.722 14.337 19.7528 14.7175 18.6177C15.0981 17.4835 15.7802 15.2957 16.2341 13.758C16.688 12.2203 17.0786 10.8889 17.1015 10.8009Z" fill="#125FA9"/>
</svg>
