<svg width="24" height="25" viewBox="0 0 24 25" fill="none" xmlns="http://www.w3.org/2000/svg">
<path fill-rule="evenodd" clip-rule="evenodd" d="M1 12.0826C1 18.1996 5.92487 23.1584 12 23.1584C18.0751 23.1584 23 18.1996 23 12.0826C23 5.96564 18.0751 1.00684 12 1.00684C5.92487 1.00684 1 5.96564 1 12.0826ZM21 12.0826C21 17.0874 16.9706 21.1446 12 21.1446C7.02944 21.1446 3 17.0874 3 12.0826C3 7.07782 7.02944 3.02062 12 3.02062C16.9706 3.02062 21 7.07782 21 12.0826ZM12.0003 18.1223C12.5528 18.1223 13.0007 17.6715 13.0007 17.1154C13.0007 16.5593 12.5528 16.1085 12.0003 16.1085C11.4479 16.1085 11 16.5593 11 17.1154C11 17.6715 11.4479 18.1223 12.0003 18.1223ZM13.0036 6.03962H11.003V14.0947H13.0036V6.03962Z" fill="#125FA9"/>
</svg>
