<svg width="95" height="95" viewBox="0 0 95 95" fill="none" xmlns="http://www.w3.org/2000/svg">
<path d="M14.6433 58.0765L13.0162 58.5146L12.4529 56.6371L14.0801 56.1365L13.8297 55.1978L9.63672 56.3868L9.88704 57.3881L11.6394 56.8875L12.2026 58.765L10.4503 59.2656L10.7632 60.2669L14.9562 59.0153L14.6433 58.0765Z" fill="#125FA9"/>
<path d="M13.3933 66.2745L16.5225 62.6447L16.0844 61.7686L11.3281 61.8937L11.7662 62.8325L12.7675 62.7699L13.6437 64.5848L12.9553 65.3358L13.3933 66.2745ZM13.5811 62.6447L15.396 62.5821L14.2069 63.8964L13.5811 62.6447Z" fill="#125FA9"/>
<path d="M20.0891 68.465L18.2116 65.7114L17.0851 66.4624C16.5219 66.8379 16.0212 67.0882 15.6457 67.2134C15.2702 67.3386 15.0199 67.276 14.8321 67.0882L14.707 66.9631L13.2676 67.9644L13.7682 68.7154L14.5192 68.2147L16.2715 70.7806L15.5205 71.2813L16.0212 72.0322L17.4606 71.0309L17.0851 70.5303L20.0891 68.465ZM15.458 68.027C15.6457 68.027 15.9586 67.9644 16.2715 67.8392C16.5844 67.7141 16.9599 67.4637 17.398 67.2134L17.9613 66.8379L18.8374 68.0896L16.5844 69.6541L15.458 68.027Z" fill="#125FA9"/>
<path d="M21.5286 70.1548L20.2144 71.3439C19.7763 71.7193 19.4008 72.0323 19.0879 72.1574C18.8376 72.2826 18.5873 72.2826 18.3995 72.0948C18.3369 72.0323 18.3369 71.9697 18.2743 71.9697L17.5859 72.5329C17.7111 72.7207 17.7737 72.8458 17.8988 72.971C18.1492 73.2213 18.3995 73.3465 18.6498 73.3465C18.9002 73.3465 19.2131 73.2213 19.5886 73.0336C19.9015 72.8458 20.3396 72.5329 20.7776 72.0948L21.466 71.469L22.4674 72.5329L19.9015 74.9736L20.5899 75.7246L23.7816 72.7207L21.5286 70.1548Z" fill="#125FA9"/>
<path d="M25.7214 77.4768L26.2221 76.851L24.6575 75.5993L25.2208 74.8483L27.0356 76.2877L27.5363 75.6619L24.9704 73.5967L22.2168 77.0387L24.9078 79.1039L25.4085 78.4781L23.531 77.0387L24.1569 76.2251L25.7214 77.4768Z" fill="#125FA9"/>
<path d="M33.8579 79.2916L32.9192 78.791L31.1669 79.8549L30.6037 79.542L31.4798 78.04L30.6037 77.5393L29.7275 79.1039L29.1643 78.791V76.7258L28.2255 76.2251L28.2881 78.6658L26.0352 80.0426L27.0365 80.6059L28.7888 79.542L29.352 79.8549L28.4759 81.3568L29.352 81.8575L30.2282 80.293L30.7914 80.6059V82.6085L31.7927 83.1717L31.7302 80.5433L33.8579 79.2916Z" fill="#125FA9"/>
<path d="M36.0472 79.9805L32.793 83.4851L33.7943 83.798L34.4827 83.047L36.4227 83.6728L36.4853 84.6741L37.4866 84.9871L37.0486 80.2308L36.0472 79.9805ZM34.9834 82.4838L36.1724 81.107L36.2976 82.9218L34.9834 82.4838Z" fill="#125FA9"/>
<path d="M45.4341 81.9829L44.4328 81.8578L43.9321 85.3624L42.6179 85.1746L43.1185 81.67L42.1172 81.5448L41.6166 85.0495L40.2398 84.8617L40.7404 81.3571L39.7391 81.2319L39.1133 85.5501L44.4953 86.3011L44.3702 87.1773L45.3089 87.3024L45.5593 85.6127L44.9334 85.4875L45.4341 81.9829Z" fill="#125FA9"/>
<path d="M50.1915 81.8575L48.2515 84.7989L48.1263 81.9827H47.125L47.3127 86.3634L48.2515 86.3008L50.1915 83.4221L50.3793 86.2383L51.318 86.1757L51.1303 81.7949L50.1915 81.8575Z" fill="#125FA9"/>
<path d="M56.3237 80.8564L55.1346 81.1068L54.5088 82.6088L53.3823 81.4823L52.2559 81.67L54.0707 83.4849L53.0068 85.9882L54.1333 85.7379L54.8217 84.1733L56.136 85.3624L57.2624 85.112L55.3224 83.2346L56.3237 80.8564Z" fill="#125FA9"/>
<path d="M59.5781 79.8552L61.3304 83.8604L62.2692 83.4224L60.8298 80.1681L62.6447 79.3545L64.0841 82.6088L65.0228 82.2333L63.2079 78.228L59.5781 79.8552Z" fill="#125FA9"/>
<path d="M67.9634 76.2253C67.7131 76.1001 67.4002 76.1001 67.0873 76.1001C66.7744 76.1627 66.4615 76.2878 66.1485 76.4756L64.584 77.4769L66.9621 81.1693L67.8383 80.606L67.2125 79.6047L67.9634 79.1041C68.2763 78.9163 68.5267 78.666 68.7144 78.4156C68.9022 78.1653 68.9647 77.8524 68.9647 77.6021C68.9647 77.2892 68.9022 77.0388 68.7144 76.7885C68.4015 76.5382 68.2138 76.3504 67.9634 76.2253ZM67.8383 77.915C67.7757 78.1027 67.5879 78.2905 67.3376 78.4782L66.6492 78.9163L65.8356 77.6647L66.524 77.2266C66.7744 77.0388 67.0247 76.9763 67.2125 77.0388C67.4002 77.0388 67.5879 77.164 67.7131 77.4143C67.8383 77.5395 67.9009 77.7272 67.8383 77.915Z" fill="#125FA9"/>
<path d="M69.5293 73.9721L70.9061 78.5406L71.7197 77.8522L71.4068 76.9135L72.9713 75.5992L73.8475 76.0373L74.6611 75.3489L70.3429 73.2837L69.5293 73.9721ZM72.1578 75.2237L71.0939 76.0999L70.5306 74.3476L72.1578 75.2237Z" fill="#125FA9"/>
<path d="M75.0367 68.3398L74.2857 69.1534L74.9115 71.156L74.4108 71.7193L73.0966 70.5928L72.4082 71.3438L75.7251 74.2226L76.4135 73.409L75.0367 72.2825L75.5373 71.7819L77.6025 72.0322L78.3535 71.156L75.6625 70.7806L75.0367 68.3398Z" fill="#125FA9"/>
<path d="M78.0407 65.2736L77.3523 64.7729L75.2871 67.9646L75.9755 68.4027L76.7265 67.2762L79.6679 69.2163L80.2311 68.4027L77.2898 66.4001L78.0407 65.2736Z" fill="#125FA9"/>
<path d="M79.1658 61.0802L80.8555 64.2093L78.2896 63.0202L77.8516 63.8964L81.7942 65.7738L82.2323 64.8977L80.5426 61.7686L83.1085 63.0202L83.5466 62.0815L79.6039 60.2666L79.1658 61.0802Z" fill="#125FA9"/>
<path d="M81.1694 55.0723L80.919 56.0736L82.2333 57.7007L82.0455 58.3891L80.3558 57.8885L80.1055 58.8272L84.2985 60.0789L84.5488 59.0775L82.8591 58.6395L83.0468 57.9511L85.0495 57.3252L85.425 56.2613L82.7965 57.0123L81.1694 55.0723Z" fill="#125FA9"/>
<path d="M14.8952 38.3004L14.1442 38.1752L13.6435 40.4908L12.6422 40.2404L13.0803 38.3004L12.2667 38.1126L11.8912 40.1153L10.9525 39.9275L11.3906 37.6746L10.6396 37.4868L9.95117 40.7411L14.2068 41.6172L14.8952 38.3004Z" fill="#125FA9"/>
<path d="M15.895 35.2965C16.0828 34.7959 16.1453 34.3578 16.0202 33.9823C15.895 33.6068 15.7073 33.4191 15.3318 33.2313C15.0814 33.1687 14.8311 33.1061 14.6434 33.2313C14.4556 33.2939 14.2679 33.4816 14.0801 33.6694C14.0801 33.4816 14.0175 33.2939 13.8924 33.1061C13.7672 32.9184 13.6421 32.8558 13.3917 32.7306C13.0788 32.6055 12.7659 32.6681 12.453 32.8558C12.2027 33.0436 11.9523 33.4191 11.7646 33.8571L11.0762 35.7972L15.2066 37.2992L15.895 35.2965ZM13.4543 34.6081L13.1414 35.4843L12.1401 35.1088L12.453 34.2326C12.5156 34.0449 12.6407 33.9197 12.7659 33.7945C12.8911 33.732 13.0162 33.732 13.204 33.7945C13.3917 33.8571 13.4543 33.9823 13.5169 34.1075C13.5169 34.2326 13.5169 34.4204 13.4543 34.6081ZM13.7672 35.7346L14.1427 34.6707C14.3305 34.2326 14.5808 34.0449 14.8937 34.17C15.2692 34.2952 15.3318 34.6081 15.2066 35.0462L14.8311 36.1101L13.7672 35.7346Z" fill="#125FA9"/>
<path d="M17.3983 31.8543L16.3344 31.2911L16.7724 30.5401C16.9602 30.2272 17.0853 29.8517 17.0853 29.5388C17.0853 29.2259 17.0228 28.9755 16.8976 28.7252C16.7724 28.4749 16.5221 28.2871 16.2718 28.0994C15.9589 27.9742 15.7085 27.9116 15.3956 27.9116C15.0827 27.9116 14.8324 28.0368 14.5821 28.2245C14.3317 28.4123 14.144 28.6626 13.9562 29.0381L13.0801 30.7278L16.9602 32.793L17.3983 31.8543ZM16.0214 30.2272L15.6459 30.9782L14.3317 30.2898L14.7072 29.5388C14.8324 29.2884 15.0201 29.1007 15.2079 29.0381C15.3956 28.9755 15.5834 28.9755 15.8337 29.1007C16.0214 29.2259 16.1466 29.351 16.2092 29.6013C16.2092 29.7265 16.1466 29.9143 16.0214 30.2272Z" fill="#125FA9"/>
<path d="M19.4004 28.4122L18.8997 27.536L20.0888 25.9089L21.0901 26.1592L21.7159 25.2831L17.0222 24.2817L16.459 25.0953L18.8371 29.2257L19.4004 28.4122ZM17.4603 25.2831L19.2126 25.7211L18.399 26.8476L17.4603 25.2831Z" fill="#125FA9"/>
<path d="M20.0893 21.7788C20.2145 21.5911 20.3396 21.4659 20.4648 21.2782C20.6525 21.0904 20.8403 20.9653 21.028 20.9027C21.2158 20.8401 21.3409 20.9027 21.4661 21.0278C21.5913 21.153 21.5913 21.2782 21.5913 21.4033C21.5913 21.5285 21.4661 21.7163 21.3409 21.8414L20.6525 22.5298L21.2158 23.0305L21.9668 22.2795C22.1545 22.0917 22.2797 22.0292 22.4674 21.9666C22.5926 21.904 22.7803 21.9666 22.8429 22.0917C22.9681 22.2169 23.0307 22.4047 22.9681 22.5924C22.9055 22.7802 22.7803 23.0305 22.5926 23.2182C22.4674 23.406 22.2797 23.5311 22.0293 23.6563C21.8416 23.7815 21.5913 23.8441 21.4035 23.9066L21.7164 24.6576C22.0293 24.595 22.2797 24.4699 22.53 24.2821C22.7803 24.0944 23.0307 23.9066 23.2184 23.7189C23.4687 23.4686 23.6565 23.2182 23.7816 22.9053C23.9068 22.5924 23.9694 22.3421 23.9694 22.0917C23.9694 21.8414 23.8442 21.5911 23.6565 21.4033C23.4687 21.2156 23.281 21.153 23.0307 21.0904C22.7803 21.0904 22.53 21.0904 22.3422 21.2156C22.4048 21.0279 22.4048 20.8401 22.4048 20.6524C22.3423 20.4646 22.2797 20.2769 22.0919 20.1517C21.9042 19.964 21.7164 19.9014 21.4035 19.9014C21.1532 19.9014 20.9029 19.9639 20.5899 20.0891C20.3396 20.2143 20.0893 20.402 19.839 20.6524C19.4635 21.0278 19.2131 21.4659 19.0254 21.9666L19.7764 22.2795C19.9015 22.1543 20.0267 21.9666 20.0893 21.7788Z" fill="#125FA9"/>
<path d="M26.0338 21.0901L25.9087 17.5855L27.661 19.7759L28.412 19.2126L25.7835 15.708L25.0325 16.3338L25.0951 19.8384L23.3428 17.5855L22.5918 18.2113L25.2203 21.6533L26.0338 21.0901Z" fill="#125FA9"/>
<path d="M29.0391 13.4554C29.4146 13.2677 29.6023 13.0173 29.7275 12.8296C29.8527 12.5793 29.7901 12.3289 29.6649 12.0786L29.0391 12.3915C29.1017 12.5167 29.1017 12.6419 29.1017 12.767C29.0391 12.8922 28.9765 12.9548 28.8513 13.0799C28.5384 13.2677 28.3507 13.2051 28.1629 12.9548L27.5371 13.2677C27.85 13.7058 28.3507 13.8309 29.0391 13.4554Z" fill="#125FA9"/>
<path d="M30.3515 18.0236L30.7896 14.519L32.1664 17.0223L33.0426 16.5216L30.9774 12.7041L30.1012 13.1422L29.6631 16.6468L28.2863 14.1435L27.4102 14.6442L29.538 18.4617L30.3515 18.0236Z" fill="#125FA9"/>
<path d="M33.9194 15.0196C34.2323 15.2699 34.6078 15.3951 34.9833 15.4577C35.3588 15.5203 35.7969 15.4577 36.235 15.3325C36.6105 15.2073 36.8608 15.0196 37.1111 14.7693C37.3615 14.5189 37.5492 14.2686 37.6118 13.9557L36.7982 13.6428C36.6105 14.0809 36.3602 14.3312 35.9221 14.5189C35.6717 14.5815 35.4214 14.6441 35.1711 14.5815C34.9208 14.5189 34.733 14.4564 34.5453 14.2686C34.3575 14.0809 34.2324 13.8931 34.1072 13.6428C33.982 13.3925 33.982 13.1421 34.0446 12.8918C34.1072 12.6415 34.1698 12.4537 34.3575 12.266C34.5453 12.0782 34.733 11.9531 34.9833 11.8279C35.4214 11.7027 35.7969 11.7027 36.1724 11.9531L36.5479 11.1395C36.2976 10.9517 35.9847 10.8892 35.6092 10.8892C35.2963 10.8892 34.9208 10.9517 34.6078 11.0769C34.1698 11.2021 33.8568 11.4524 33.5439 11.7653C33.2936 12.0782 33.1059 12.3911 33.0433 12.8292C32.9807 13.2047 32.9807 13.6428 33.1685 14.0183C33.3562 14.4564 33.6065 14.7693 33.9194 15.0196Z" fill="#125FA9"/>
<path d="M39.7389 14.2686L39.3634 12.5163L40.0518 12.3912L41.4912 13.8931L42.6177 13.6428L40.7402 11.7028L41.6789 9.38721L40.615 9.57495L39.864 11.5776L39.1756 11.7028L38.8001 9.95045L37.7988 10.2008L38.7376 14.4564L39.7389 14.2686Z" fill="#125FA9"/>
<path d="M44.121 12.5788L46.1236 12.4537L46.5617 13.3924L47.6256 13.3298L45.3726 9.07422L44.3713 9.1368L42.7441 13.6427L43.808 13.5801L44.121 12.5788ZM44.9971 10.0755L45.8107 11.7027L44.4339 11.7653L44.9971 10.0755Z" fill="#125FA9"/>
<path d="M49.0013 13.3925L49.8775 12.266L50.8162 12.3286L50.7536 13.4551L51.7549 13.5176L52.0679 9.13688L50.1904 9.01172C49.8149 9.01172 49.4394 9.01172 49.1891 9.13688C48.9387 9.26205 48.6884 9.38721 48.5007 9.63754C48.3129 9.88787 48.2503 10.1382 48.1878 10.5137C48.1878 10.8266 48.2503 11.1395 48.3755 11.3898C48.5007 11.6402 48.751 11.8279 49.0013 12.0157L48 13.2673L49.0013 13.3925ZM49.4394 10.0756C49.6272 9.95045 49.8149 9.88787 50.1278 9.95045L51.004 10.013L50.8788 11.5776L50.0026 11.515C49.6897 11.515 49.502 11.3898 49.3768 11.2647C49.2517 11.1395 49.1891 10.8892 49.1891 10.6389C49.1891 10.3885 49.2517 10.2008 49.4394 10.0756Z" fill="#125FA9"/>
<path d="M56.1993 13.5178L58.1394 14.081L58.2645 15.0823L59.2659 15.3953L58.64 10.639L57.7013 10.3887L54.6348 14.0184L55.6361 14.3314L56.1993 13.5178ZM57.8265 11.4526L58.0142 13.2675L56.7 12.892L57.8265 11.4526Z" fill="#125FA9"/>
<path d="M61.5803 14.5193L62.2687 14.8322L62.519 16.8975L63.5829 17.3981L63.2074 14.7071L65.3978 13.3928L64.3965 12.9548L62.6442 14.0813L61.9558 13.7683L62.7067 12.1412L61.768 11.7031L59.9531 15.7084L60.8919 16.1465L61.5803 14.5193Z" fill="#125FA9"/>
<path d="M64.5851 17.9612L65.3987 17.398L67.0884 18.5245L66.9007 19.5258L67.7768 20.089L68.5278 15.3328L67.7143 14.7695L63.709 17.398L64.5851 17.9612ZM67.5891 15.896L67.2762 17.6483L66.0871 16.8973L67.5891 15.896Z" fill="#125FA9"/>
<path d="M68.2139 21.5911L68.8397 20.9027L71.1552 22.9679L70.5294 23.6563L71.2178 24.2822L72.3443 22.9679L71.9062 22.5299L74.2844 19.9014L71.7811 17.6484L70.8423 18.6498C70.3417 19.1504 69.9662 19.5259 69.5907 19.7137C69.2778 19.9014 68.9649 19.964 68.7771 19.7762L68.652 19.6511L67.4629 20.9027L68.2139 21.5911ZM70.4668 20.2769C70.7797 20.0891 71.0927 19.7762 71.4682 19.4007L71.9062 18.9627L73.0327 19.964L71.2178 21.9666L69.7784 20.6524C69.9036 20.5898 70.1539 20.4646 70.4668 20.2769Z" fill="#125FA9"/>
<path d="M74.5361 26.9104L75.1619 26.4097L73.6599 24.5323L74.4109 23.9064L75.7252 25.471L76.351 24.9703L75.0368 23.4058L75.7252 22.78L77.2271 24.5323L77.853 24.0316L75.7252 21.5283L72.3457 24.2819L74.5361 26.9104Z" fill="#125FA9"/>
<path d="M75.6628 28.5377L77.8532 27.2235L76.7267 29.4139L76.9144 29.7894H79.4177L77.2273 31.1036L77.6654 31.9172L81.4203 29.6642L80.9823 28.9758H77.8532L79.3551 26.1596L78.917 25.4712L75.1621 27.7242L75.6628 28.5377Z" fill="#125FA9"/>
<path d="M78.5414 33.9822L81.9835 34.9209L79.2924 35.9223L79.6679 36.861L83.7358 35.2964L83.4228 34.4203L79.9808 33.4816L82.6718 32.4802L82.2964 31.5415L78.2285 33.1061L78.5414 33.9822Z" fill="#125FA9"/>
<path d="M82.609 37.2989C82.2961 37.3615 81.9832 37.4867 81.7954 37.737C81.6077 37.9247 81.4825 38.1751 81.4199 38.488L79.918 37.8622L80.1683 38.9261L81.4825 39.4267L81.6703 40.3029L80.5438 40.5532L80.7316 41.5545L84.9871 40.6158L84.6116 38.8009C84.5491 38.4254 84.4239 38.1125 84.2361 37.8622C84.0484 37.6118 83.7981 37.4241 83.5478 37.3615C83.2348 37.2363 82.9845 37.2363 82.609 37.2989ZM83.9858 39.8022L82.4213 40.1151L82.2335 39.239C82.1709 38.9886 82.1709 38.7383 82.2961 38.5506C82.4213 38.3628 82.5464 38.2377 82.7968 38.2377C83.0471 38.1751 83.2348 38.2377 83.4226 38.3628C83.6103 38.488 83.6729 38.6757 83.7355 38.9886L83.9858 39.8022Z" fill="#125FA9"/>
<path d="M34.4204 46.0607V49.4402L32.6055 52.8196H38.0501L36.2353 49.4402V46.9369L39.6147 48.4389V53.0074L47.4375 56.512L55.2603 53.0074V48.4389L62.3947 45.2472L47.5001 38.4883L32.6055 45.2472L34.4204 46.0607ZM53.4454 51.8183L47.5627 54.5094L41.6799 51.8183V49.315L47.5627 52.0061L53.4454 49.315V51.8183ZM47.5001 40.5535L57.8262 45.2472L47.5001 49.9409L37.174 45.2472L47.5001 40.5535Z" fill="#125FA9"/>
<path d="M68.2769 31.1658L67.5885 30.2896C67.4634 30.1644 67.3382 29.9767 67.213 29.8515C67.1505 29.7264 67.0253 29.6638 66.9627 29.5386C66.7124 29.2883 66.5246 29.038 66.2743 28.8502C66.2117 28.7876 66.1491 28.7251 66.024 28.5999C65.7736 28.3496 65.5233 28.0992 65.273 27.9115C65.2104 27.8489 65.1478 27.7863 65.0852 27.7863C64.8349 27.536 64.522 27.2857 64.2717 27.0353C63.0826 26.034 61.7684 25.1579 60.3916 24.4069C60.2664 24.3443 60.1412 24.2191 59.9535 24.1565C59.7657 24.0314 59.5154 23.9062 59.3277 23.8436C59.1399 23.7185 58.9522 23.6559 58.7644 23.5307C58.5767 23.4681 58.3889 23.343 58.2012 23.2804C57.9509 23.1552 57.7631 23.0926 57.5128 22.9675C57.325 22.9049 57.1373 22.8423 57.0121 22.7797C56.7618 22.6546 56.5115 22.592 56.1985 22.4668C56.0108 22.4042 55.8856 22.3417 55.6979 22.2791C55.385 22.2165 55.1346 22.0913 54.8217 22.0287C54.6966 21.9662 54.5088 21.9662 54.3837 21.9036C54.0707 21.841 53.7578 21.7158 53.4449 21.6532C53.3198 21.5907 53.132 21.5907 53.0068 21.5281C52.6939 21.4655 52.381 21.4029 52.0681 21.3403C51.9429 21.3403 51.8178 21.2778 51.63 21.2778C51.3171 21.2152 51.0042 21.2152 50.6913 21.1526C50.5661 21.1526 50.3784 21.09 50.2532 21.09C49.9403 21.0274 49.6274 21.0274 49.3145 21.0274C49.1893 21.0274 49.0016 21.0274 48.8764 20.9648C48.5009 20.9648 48.1254 20.9648 47.7499 20.9648C47.6873 20.9648 47.5622 20.9648 47.4996 20.9648C47.437 20.9648 47.3119 20.9648 47.2493 20.9648C46.8738 20.9648 46.4983 20.9648 46.1228 20.9648C45.9976 20.9648 45.8099 20.9648 45.6847 21.0274C45.3718 21.0274 45.0589 21.09 44.746 21.09C44.6208 21.09 44.4331 21.1526 44.3079 21.1526C43.995 21.2152 43.6821 21.2152 43.3692 21.2778C43.244 21.2778 43.1188 21.3403 42.9311 21.3403C42.6182 21.4029 42.3053 21.4655 41.9923 21.5281C41.8672 21.5281 41.742 21.5907 41.5543 21.6532C41.2414 21.7158 40.9285 21.7784 40.6155 21.9036C40.4904 21.9662 40.3026 21.9662 40.1775 22.0287C39.8645 22.0913 39.6142 22.2165 39.3013 22.2791C39.1761 22.3417 38.9884 22.4042 38.8632 22.4668C38.6129 22.592 38.3 22.6546 38.0497 22.7797C37.8619 22.8423 37.7368 22.9049 37.549 22.9675C37.2987 23.0926 37.0483 23.1552 36.8606 23.2804C36.6729 23.343 36.4851 23.4681 36.2974 23.5307C36.1096 23.6559 35.9219 23.7185 35.6715 23.8436C35.4838 23.9688 35.2335 24.0314 35.0457 24.1565C34.9206 24.2191 34.7328 24.3443 34.6076 24.4069C34.3573 24.532 34.107 24.6572 33.8566 24.8449C33.8566 24.8449 33.8567 24.8449 33.7941 24.8449C32.7302 25.4708 31.7288 26.2218 30.7901 26.9727L30.7275 27.0353C30.4772 27.2857 30.1643 27.4734 29.914 27.7237C29.8514 27.7863 29.7888 27.8489 29.7262 27.9115C29.4759 28.1618 29.2256 28.3496 29.0378 28.5999C28.9752 28.6625 28.8501 28.7876 28.7875 28.8502C28.5997 29.1005 28.3494 29.2883 28.1617 29.5386C28.0365 29.6638 27.9739 29.7264 27.8487 29.8515C27.7236 29.9767 27.5984 30.1019 27.4733 30.2896L26.7848 31.1032C23.2176 35.6091 21.0898 41.3041 21.0898 47.4372C21.0898 53.5702 23.2176 59.2652 26.7848 63.7712L27.4733 64.5847C27.5984 64.7099 27.7236 64.8977 27.9113 65.0228C27.9739 65.0854 28.0365 65.2106 28.1617 65.2731C28.412 65.5235 28.5997 65.7738 28.8501 66.0241C28.9126 66.0867 28.9752 66.1493 29.0378 66.2119C29.2881 66.4622 29.5385 66.7125 29.7888 66.9629C29.8514 67.0254 29.914 67.0254 29.914 67.088C30.1643 67.3384 30.4772 67.5887 30.7901 67.839C31.9792 68.8403 33.2934 69.7165 34.6702 70.4675C34.7954 70.5301 34.9831 70.6552 35.1083 70.7178C35.296 70.843 35.5464 70.9056 35.7341 71.0307C35.9219 71.1559 36.1096 71.2185 36.3599 71.3436C36.5477 71.4062 36.7354 71.5314 36.9232 71.594C37.1735 71.7191 37.4238 71.7817 37.6742 71.9069C37.8619 71.9695 37.9871 72.032 38.1748 72.0946C38.4252 72.2198 38.7381 72.2824 38.9884 72.4075C39.1136 72.4701 39.3013 72.5327 39.4265 72.5327C39.7394 72.6579 40.0523 72.7204 40.3026 72.783C40.4278 72.8456 40.5529 72.8456 40.7407 72.9082C41.0536 72.9708 41.3665 73.0959 41.6794 73.1585C41.8046 73.1585 41.9298 73.2211 42.0549 73.2211C42.3678 73.2837 42.7433 73.3463 43.0562 73.4089C43.1814 73.4089 43.3066 73.4714 43.4317 73.4714C43.7447 73.534 44.1202 73.5966 44.4331 73.5966C44.5582 73.5966 44.6834 73.6592 44.8085 73.6592C45.184 73.7218 45.497 73.7218 45.8725 73.7218C45.9976 73.7218 46.1228 73.7218 46.1854 73.7218C46.6234 73.7218 47.1241 73.7843 47.5622 73.7843C48.0628 73.7843 48.5009 73.7843 49.0016 73.7218C49.1267 73.7218 49.2519 73.7218 49.3771 73.7218C49.7526 73.7218 50.0655 73.6592 50.441 73.6592C50.5661 73.6592 50.6913 73.5966 50.8165 73.5966C51.1294 73.534 51.5049 73.534 51.8178 73.4714C51.9429 73.4714 52.0681 73.4089 52.1933 73.4089C52.5062 73.3463 52.8817 73.2837 53.1946 73.2211C53.3198 73.2211 53.4449 73.1585 53.5701 73.1585C53.883 73.0959 54.1959 73.0334 54.5088 72.9082C54.634 72.8456 54.7591 72.8456 54.9469 72.783C55.2598 72.7204 55.5727 72.5953 55.823 72.5327C55.9482 72.4701 56.136 72.4075 56.2611 72.4075C56.5115 72.2824 56.8244 72.2198 57.0747 72.0946C57.2624 72.032 57.3876 71.9695 57.5754 71.9069C57.8257 71.7817 58.076 71.7191 58.3263 71.594C58.5141 71.5314 58.7018 71.4062 58.8896 71.3436C59.0773 71.2185 59.2651 71.1559 59.5154 71.0307C59.7031 70.9056 59.9535 70.843 60.1412 70.7178C60.2664 70.6552 60.4541 70.5301 60.5793 70.4675C62.269 69.5287 63.8962 68.4023 65.3356 67.088C65.3982 67.0254 65.3981 67.0254 65.4607 66.9629C65.7111 66.7125 65.9614 66.4622 66.2117 66.2119C66.2743 66.1493 66.3369 66.0867 66.3995 66.0241C66.6498 65.7738 66.9001 65.5235 67.0879 65.2731C67.1504 65.2106 67.213 65.148 67.2756 65.0854C67.4008 64.8976 67.5885 64.7725 67.7137 64.5847L68.4021 63.7712C71.9693 59.2652 74.0971 53.5702 74.0971 47.4372C73.9719 41.3041 71.8441 35.6717 68.2769 31.1658ZM29.9765 30.227C30.0391 30.1644 30.1017 30.1019 30.1643 30.0393C30.352 29.8515 30.6024 29.6012 30.8527 29.4135C30.9153 29.3509 30.9778 29.2883 31.0404 29.2257C31.2908 29.038 31.4785 28.8502 31.7288 28.5999C31.7914 28.5373 31.854 28.4747 31.9166 28.4121C32.1669 28.2244 32.4172 28.0366 32.605 27.8489C32.6676 27.7863 32.7928 27.7237 32.8553 27.6612C33.1057 27.4734 33.356 27.3482 33.5437 27.1605C33.6689 27.0979 33.7315 27.0353 33.8566 26.9727C34.107 26.8476 34.2947 26.6598 34.545 26.5347C34.6702 26.4721 34.7954 26.4095 34.9205 26.3469C35.1083 26.2218 35.3586 26.0966 35.5464 25.9714C35.6715 25.9088 35.8593 25.7837 35.9845 25.7211C36.1722 25.5959 36.3599 25.5334 36.5477 25.4082C36.7354 25.283 36.9232 25.2204 37.1109 25.1579C37.2987 25.0953 37.4238 25.0327 37.6116 24.9075C37.8619 24.7824 38.1122 24.7198 38.3626 24.5946C38.4877 24.532 38.6129 24.4695 38.7381 24.4695C39.051 24.3443 39.3639 24.2817 39.6142 24.1565C39.6768 24.1565 39.802 24.094 39.8645 24.094C40.1149 24.0314 40.3652 23.9688 40.553 23.9062C38.2374 25.9714 36.2348 29.1005 34.7954 33.1058C32.7927 32.48 30.9153 31.729 29.2881 30.7903C29.6636 30.5399 29.8514 30.4148 29.9765 30.227ZM46.5609 22.9675V34.7955C43.1814 34.733 39.8646 34.2949 36.8606 33.5439C39.1136 27.4108 42.6808 23.5307 46.5609 22.9675ZM48.4383 22.9675C52.3184 23.5307 55.8856 27.4108 58.1386 33.5439C55.1346 34.2949 51.8804 34.733 48.4383 34.7955V22.9675ZM59.9535 33.0432C58.5141 29.1005 56.5114 25.9088 54.1959 23.8436C54.4462 23.9062 54.6966 23.9688 54.8843 24.0314C54.9469 24.0314 55.0721 24.094 55.1346 24.094C55.4475 24.2191 55.7605 24.2817 56.0108 24.4069C56.136 24.4695 56.2611 24.532 56.3863 24.532C56.6366 24.6572 56.8869 24.7198 57.1373 24.8449C57.325 24.9075 57.4502 24.9701 57.6379 25.0953C57.8257 25.1579 58.0134 25.283 58.2012 25.3456C58.3889 25.4708 58.5767 25.5334 58.827 25.6585C58.9522 25.7211 59.1399 25.8463 59.2651 25.9088C59.5154 26.034 59.7032 26.1592 59.9535 26.2843C60.0786 26.3469 60.2038 26.4095 60.329 26.4721C60.5793 26.5973 60.8296 26.785 61.0174 26.9102C61.1426 26.9727 61.2051 27.0353 61.3303 27.0979C61.5806 27.2857 61.8309 27.4108 62.0813 27.5986C62.1439 27.6612 62.2064 27.7237 62.3316 27.7863C62.5819 27.9741 62.8323 28.1618 63.0826 28.3496C63.1452 28.4121 63.2078 28.4747 63.2703 28.5373C63.5207 28.7251 63.771 28.9754 63.9587 29.1631C64.0213 29.2257 64.0839 29.2883 64.1465 29.3509C64.3968 29.5386 64.5846 29.789 64.8349 29.9767C64.8975 30.0393 64.9601 30.1019 65.0227 30.1644C65.1478 30.2896 65.3356 30.4774 65.4607 30.6025C63.771 31.6038 61.9561 32.4174 59.9535 33.0432ZM28.2868 32.1671C33.2308 35.1085 40.1775 36.7356 47.4996 36.7356C54.7592 36.7356 61.7058 35.0459 66.7124 32.1671C70.0918 36.3601 72.0945 41.6796 72.0945 47.4998C72.0945 53.3199 70.0918 58.6394 66.7124 62.8324C61.7684 59.8911 54.8217 58.2639 47.4996 58.2639C40.1775 58.2639 33.2934 59.9536 28.2868 62.8324C24.9074 58.6394 22.9047 53.3199 22.9047 47.4998C22.9047 41.6796 24.9074 36.3601 28.2868 32.1671ZM64.9601 64.7725C64.8975 64.8351 64.8349 64.8976 64.8349 64.8976C64.5846 65.148 64.3343 65.3357 64.1465 65.5861C64.0839 65.6486 64.0213 65.7112 63.9587 65.7112C63.7084 65.899 63.4581 66.1493 63.2078 66.337C63.1452 66.3996 63.0826 66.4622 63.02 66.4622C62.7697 66.65 62.5194 66.8377 62.269 67.0254C62.2065 67.088 62.1439 67.1506 62.0813 67.1506C61.8309 67.3384 61.5806 67.5261 61.3303 67.7139C61.2677 67.7764 61.1425 67.839 61.08 67.9016C60.8296 68.0893 60.5793 68.2145 60.329 68.3397C60.2038 68.4023 60.0787 68.4648 60.0161 68.5274C59.7657 68.6526 59.578 68.7778 59.3277 68.9029C59.2025 68.9655 59.0147 69.0281 58.8896 69.1532C58.7018 69.2784 58.5141 69.341 58.2638 69.4662C58.076 69.5287 57.8883 69.6539 57.7005 69.7165C57.5128 69.7791 57.3876 69.8417 57.1999 69.9668C56.9495 70.092 56.6992 70.1546 56.4489 70.2797C56.3237 70.3423 56.1985 70.4049 56.0734 70.4049C55.7605 70.5301 55.4475 70.5926 55.1346 70.7178C55.0721 70.7178 55.0095 70.7804 54.8843 70.7804C54.634 70.843 54.3837 70.9056 54.1333 70.9681C56.4489 68.9029 58.4515 65.7738 59.8909 61.7685C61.8935 62.3944 63.771 63.2079 65.3982 64.0841C65.273 64.4596 65.0852 64.5847 64.9601 64.7725ZM39.8645 70.843C39.5516 70.7178 39.1761 70.5926 38.8632 70.5301C38.7381 70.4675 38.6755 70.4675 38.5503 70.4049C38.3 70.2797 37.9871 70.2171 37.7368 70.092C37.6116 70.0294 37.4238 69.9668 37.2987 69.9042C37.1109 69.7791 36.8606 69.7165 36.6728 69.5913C36.4851 69.5287 36.2974 69.4036 36.1096 69.2784C35.9219 69.2158 35.7967 69.0907 35.609 69.0281C35.4212 68.9029 35.1709 68.7778 34.9831 68.6526C34.858 68.59 34.7328 68.5274 34.6076 68.4023C34.3573 68.2771 34.1696 68.0893 33.9192 67.9642C33.7941 67.9016 33.7315 67.839 33.6063 67.7764C33.356 67.5887 33.1057 67.4635 32.8553 67.2758C32.7928 67.2132 32.7302 67.1506 32.605 67.088C32.3547 66.9003 32.1043 66.7125 31.854 66.5248C31.7914 66.4622 31.7288 66.3996 31.6663 66.3996C31.4159 66.2119 31.1656 65.9615 30.9153 65.7738C30.8527 65.7112 30.7901 65.6486 30.7275 65.6486C30.4772 65.3983 30.2269 65.2106 30.0391 64.9602C29.9765 64.8977 29.9765 64.8976 29.914 64.8351C29.7262 64.6473 29.6011 64.5222 29.4133 64.3344C31.0404 63.3957 32.8553 62.6447 34.858 62.0189C36.2974 65.9615 38.3 69.0907 40.6155 71.2185C40.3652 71.1559 40.1149 71.0933 39.9271 71.0307C39.9897 70.9056 39.9271 70.9056 39.8645 70.843ZM48.4383 71.9695V60.1414C51.8178 60.204 55.1346 60.642 58.1386 61.393C55.8856 67.5261 52.3184 71.4688 48.4383 71.9695ZM46.4983 71.9695C42.6182 71.4062 39.051 67.5261 36.798 61.393C39.802 60.642 43.0562 60.204 46.4983 60.1414V71.9695Z" fill="#125FA9"/>
<path d="M47.5 0C21.3406 0 0 21.278 0 47.5C0 73.722 21.278 95 47.5 95C73.6594 95 95 73.722 95 47.5C95 21.278 73.6594 0 47.5 0ZM47.5 93.0599C22.3419 93.0599 1.94006 72.5955 1.94006 47.5C1.94006 22.4045 22.3419 1.87747 47.5 1.87747C72.6581 1.87747 93.0599 22.3419 93.0599 47.5C93.0599 72.6581 72.5955 93.0599 47.5 93.0599Z" fill="#125FA9"/>
<path d="M81.4824 48.5639C81.4824 49.753 82.4837 50.7543 83.6728 50.7543C84.8619 50.7543 85.8632 49.753 85.8632 48.5639C85.8632 47.3749 84.8619 46.3735 83.6728 46.3735C82.4837 46.3735 81.4824 47.3749 81.4824 48.5639Z" fill="#125FA9"/>
<path d="M8.88672 47.9379C8.88672 49.127 9.88804 50.1283 11.0771 50.1283C12.2662 50.1283 13.2675 49.127 13.2675 47.9379C13.2675 46.7489 12.2662 45.7476 11.0771 45.7476C9.88804 45.7476 8.88672 46.7489 8.88672 47.9379Z" fill="#125FA9"/>
</svg>
